<?xml version="1.0" encoding="utf-8"?>
<!-- Generator: Adobe Illustrator 18.0.0, SVG Export Plug-In . SVG Version: 6.00 Build 0)  -->
<!DOCTYPE svg PUBLIC "-//W3C//DTD SVG 1.1//EN" "http://www.w3.org/Graphics/SVG/1.1/DTD/svg11.dtd">
<svg version="1.1" id="Layer_1" xmlns="http://www.w3.org/2000/svg" xmlns:xlink="http://www.w3.org/1999/xlink" x="0px" y="0px"
	 viewBox="0 0 512 512" enable-background="new 0 0 512 512" xml:space="preserve">
<g>
	<linearGradient id="SVGID_1_" gradientUnits="userSpaceOnUse" x1="196.4115" y1="293.0106" x2="702.9529" y2="-21.6039">
		<stop  offset="4.882813e-004" style="stop-color:#27B89A"/>
		<stop  offset="1" style="stop-color:#4766B0"/>
	</linearGradient>
	<path fill="url(#SVGID_1_)" d="M400.8,504.1H111.2c-57.1,0-103.3-46.3-103.3-103.3V111.2C7.9,54.2,54.2,7.9,111.2,7.9h289.5
		c57.1,0,103.3,46.3,103.3,103.3v289.5C504.1,457.8,457.8,504.1,400.8,504.1z"/>
	<g>
		<path fill="#FFFFFF" d="M123.2,376.3v-18.4l46.7-51.4c5.8,4.8,14.2,4.6,19.7-0.5l36.1,27.1c1.8,8.3,10,13.5,18.2,11.7
			c6.9-1.5,11.8-7.5,12.1-14.5c0-0.9-0.1-1.9-0.3-2.8l40.1-44.5c2,0.9,4.1,1.3,6.2,1.3c3.6,0,7.1-1.3,9.9-3.7l37.4,33.3
			c-0.9,1.9-1.3,4.1-1.3,6.2c0,8.5,6.9,15.3,15.3,15.3c8.5,0,15.3-6.9,15.3-15.3c0-8.5-6.9-15.3-15.3-15.3c-2.4,0-4.8,0.6-6.9,1.7
			l-39-34.9c0.1-0.9,0.1-1.7,0-2.6c0-8.5-6.9-15.3-15.3-15.3c-8.5,0-15.3,6.9-15.3,15.3c0,2.4,0.6,4.8,1.7,6.9l-38.2,42.5
			c-2.7-2.2-6-3.4-9.5-3.4c-5.2,0-10,2.6-12.8,7l-33.2-25.1c0.1-0.8,0.1-1.6,0-2.3c0-8.5-6.9-15.3-15.3-15.3
			c-8.5,0-15.3,6.9-15.3,15.3c0,0.9,0.1,1.9,0.3,2.8l-41.2,45.3v-56.2l49.3-44.8c2.1,1.1,4.5,1.8,6.9,1.8c8.5,0,15.3-6.9,15.3-15.3
			c0-1-0.1-1.9-0.3-2.9l38.6-43.1c0.9,0.1,1.7,0.1,2.6,0c4.1,0,8.1-1.7,10.9-4.6l40.9,13.6c2.4,8.1,10.9,12.8,19,10.4
			c7.1-2.1,11.8-9,10.9-16.4l35.8-22.4c6.3,5.6,16,5.1,21.6-1.2c5.6-6.3,5.1-16-1.2-21.6c-6.3-5.6-16-5.1-21.6,1.2
			c-2.6,2.9-3.9,6.6-3.9,10.4c0,0.7,0,1.4,0,2.1L312.2,176c-6.2-5.7-15.9-5.3-21.7,0.9c-1,1.1-1.9,2.4-2.5,3.7l-37.1-12.5
			c0-0.5,0-0.9,0-1.4c0.1-8.5-6.8-15.4-15.2-15.4c-8.5-0.1-15.4,6.8-15.4,15.2c0,3.7,1.3,7.3,3.7,10.1l-35.1,39.5
			c-2.7-2.2-6-3.4-9.5-3.4c-8.5,0-15.3,6.9-15.3,15.3c0,2.2,0.5,4.3,1.4,6.2l-42.2,38.4V120.8h-10.2V131h-10.2v10.2h10.2v51.1h-10.2
			v10.2h10.2v51.1h-10.2v10.2h10.2V315h-10.2v10.2h10.2v56.2c0,2.8,2.3,5.1,5.1,5.1h56.2v10.2h10.2v-10.2h51.1v10.2h10.2v-10.2h51.1
			v10.2h10.2v-10.2h51.1v10.2h10.2v-10.2h40.9v-10.2H123.2z M363.3,315c2.8,0,5.1,2.3,5.1,5.1c0,2.8-2.3,5.1-5.1,5.1
			c-2.8,0-5.1-2.3-5.1-5.1C358.2,317.3,360.5,315,363.3,315L363.3,315z M302,263.9c2.8,0,5.1,2.3,5.1,5.1c0,2.8-2.3,5.1-5.1,5.1
			c-2.8,0-5.1-2.3-5.1-5.1C296.9,266.2,299.2,263.9,302,263.9L302,263.9z M240.7,325.2c2.8,0,5.1,2.3,5.1,5.1c0,2.8-2.3,5.1-5.1,5.1
			c-2.8,0-5.1-2.3-5.1-5.1C235.6,327.5,237.9,325.2,240.7,325.2L240.7,325.2z M179.4,289.4c2.8,0,5.1,2.3,5.1,5.1
			c0,2.8-2.3,5.1-5.1,5.1s-5.1-2.3-5.1-5.1C174.3,291.7,176.5,289.4,179.4,289.4L179.4,289.4z M363.3,146.4c2.8,0,5.1,2.3,5.1,5.1
			c0,2.8-2.3,5.1-5.1,5.1c-2.8,0-5.1-2.3-5.1-5.1C358.2,148.7,360.5,146.4,363.3,146.4L363.3,146.4z M302,182.1
			c2.8,0,5.1,2.3,5.1,5.1c0,2.8-2.3,5.1-5.1,5.1c-2.8,0-5.1-2.3-5.1-5.1C296.9,184.4,299.2,182.1,302,182.1L302,182.1z M235.6,161.7
			c2.8,0,5.1,2.3,5.1,5.1c0,2.8-2.3,5.1-5.1,5.1c-2.8,0-5.1-2.3-5.1-5.1C230.5,164,232.7,161.7,235.6,161.7L235.6,161.7z M179.4,223
			c2.8,0,5.1,2.3,5.1,5.1c0,2.8-2.3,5.1-5.1,5.1s-5.1-2.3-5.1-5.1C174.3,225.3,176.5,223,179.4,223L179.4,223z M179.4,223"/>
	</g>
</g>
</svg>
