<?xml version="1.0" encoding="utf-8"?>
<!-- Generator: Adobe Illustrator 18.0.0, SVG Export Plug-In . SVG Version: 6.00 Build 0)  -->
<!DOCTYPE svg PUBLIC "-//W3C//DTD SVG 1.1//EN" "http://www.w3.org/Graphics/SVG/1.1/DTD/svg11.dtd">
<svg version="1.1" id="Layer_1" xmlns="http://www.w3.org/2000/svg" xmlns:xlink="http://www.w3.org/1999/xlink" x="0px" y="0px"
	 viewBox="0 0 512 512" enable-background="new 0 0 512 512" xml:space="preserve">
<g>
	<linearGradient id="SVGID_1_" gradientUnits="userSpaceOnUse" x1="196.4115" y1="293.0106" x2="702.9529" y2="-21.6039">
		<stop  offset="4.882813e-004" style="stop-color:#27B89A"/>
		<stop  offset="1" style="stop-color:#4766B0"/>
	</linearGradient>
	<path fill="url(#SVGID_1_)" d="M400.8,504.1H111.2c-57.1,0-103.3-46.3-103.3-103.3V111.2C7.9,54.2,54.2,7.9,111.2,7.9h289.5
		c57.1,0,103.3,46.3,103.3,103.3v289.5C504.1,457.8,457.8,504.1,400.8,504.1z"/>
	<g>
		<path fill="#FFFFFF" d="M123.2,376.3v-18.4l46.7-51.4c5.8,4.8,14.2,4.6,19.7-0.5l36.1,27.1c1.8,8.3,10,13.5,18.2,11.7
			c6.9-1.5,11.8-7.5,12.1-14.5c0-0.9-0.1-1.9-0.3-2.8l40.1-44.5c2,0.9,4.1,1.3,6.2,1.3c3.6,0,7.1-1.3,9.9-3.7l37.4,33.3
			c-0.9,1.9-1.3,4.1-1.3,6.2c0,8.5,6.9,15.3,15.3,15.3c8.5,0,15.3-6.9,15.3-15.3c0-8.5-6.9-15.3-15.3-15.3c-2.4,0-4.8,0.6-6.9,1.7
			l-39-34.9c0.1-0.9,0.1-1.7,0-2.6c0-8.5-6.9-15.3-15.3-15.3c-8.5,0-15.3,6.9-15.3,15.3c0,2.4,0.6,4.8,1.7,6.9l-38.2,42.5
			c-2.7-2.2-6-3.4-9.5-3.4c-5.2,0-10,2.6-12.8,7l-33.2-25.1c0.1-0.8,0.1-1.6,0-2.3c0-8.5-6.9-15.3-15.3-15.3
			c-8.5,0-15.3,6.9-15.3,15.3c0,0.9,0.1,1.9,0.3,2.8l-41.2,45.3v-56.2l49.3-44.8c2.1,1.1,4.5,1.8,6.9,1.8c8.5,0,15.3-6.9,15.3-15.3
			c0-1-0.1-1.9-0.3-2.9l38.6-43.1c0.9,0.1,1.7,0.1,2.6,0c4.1,0,8.1-1.7,10.9-4.6l40.9,13.6c2.4,8.1,10.9,12.8,19,10.4
			c7.1-2.1,11.8-9,10.9-16.4l35.8-22.4c6.3,5.6,16,5.1,21.6-1.2c5.6-6.3,5.1-16-1.2-21.6c-6.3-5.6-16-5.1-21.6,1.2
			c-2.6,2.9-3.9,6.6-3.9,10.4c0,0.7,0,1.4,0,2.1L312.2,176c-6.2-5.7-15.9-5.3-21.7,0.9c-1,1.1-1.9,2.4-2.5,3.7l-37.1-12.5
			c0-0.5,0-0.9,0-1.4c0.1-8.5-6.8-15.4-15.2-15.4c-8.5-0.1-15.4,6.8-15.4,15.2c0,3.7,1.3,7.3,3.7,10.1l-35.1,39.5
			c-2.7-2.2-6-3.4-9.5-3.4c-8.5,0-15.3,6.9-15.3,15.3c0,2.2,0.5,4.3,1.4,6.2l-42.2,38.4V120.8h-10.2V131h-10.2v10.2h10.2v51.1h-10.2
			v10.2h10.2v51.1h-10.2v10.2h10.2V315h-10.2v10.2h10.2v56.2c0,2.8,2.3,5.1,5.1,5.1h56.2v10.2h10.2v-10.2h51.1v10.2h10.2v-10.2h51.1
			v10.2h10.2v-10.2h51.1v10.2h10.2v-10.2h40.9v-10.2H123.2z M363.3,315c2.8,0,5.1,2.3,5.1,5.1c0,2.8-2.3,5.1-5.1,5.1
			c-2.8,0-5.1-2.3-5.1-5.1C358.2,317.3,360.5,315,363.3,315L363.3,315z M302,263.9c2.8,0,5.1,2.3,5.1,5.1c0,2.8-2.3,5.1-5.1,5.1
			c-2.8,0-5.1-2.3-5.1-5.1C296.9,266.2,299.2,263.9,302,263.9L302,263.9z M240.7,325.2c2.8,0,5.1,2.3,5.1,5.1c0,2.8-2.3,5.1-5.1,5.1
			c-2.8,0-5.1-2.3-5.1-5.1C235.6,327.5,237.9,325.2,240.7,325.2L240.7,325.2z M179.4,289.4c2.8,0,5.1,2.3,5.1,5.1
			c0,2.8-2.3,5.1-5.1,5.1s-5.1-2.3-5.1-5.1C174.3,291.7,176.5,289.4,179.4,289.4L179.4,289.4z M363.3,146.4c2.8,0,5.1,2.3,5.1,5.1
			c0,2.8-2.3,5.1-5.1,5.1c-2.8,0-5.1-2.3-5.1-5.1C358.2,148.7,360.5,146.4,363.3,146.4L363.3,146.4z M302,182.1
			c2.8,0,5.1,2.3,5.1,5.1c0,2.8-2.3,5.1-5.1,5.1c-2.8,0-5.1-2.3-5.1-5.1C296.9,184.4,299.2,182.1,302,182.1L302,182.1z M235.6,161.7
			c2.8,0,5.1,2.3,5.1,5.1c0,2.8-2.3,5.1-5.1,5.1c-2.8,0-5.1-2.3-5.1-5.1C230.5,164,232.7,161.7,235.6,161.7L235.6,161.7z M179.4,223
			c2.8,0,5.1,2.3,5.1,5.1c0,2.8-2.3,5.1-5.1,5.1s-5.1-2.3-5.1-5.1C174.3,225.3,176.5,223,179.4,223L179.4,223z M179.4,223"/>
	</g>
</g>
<g>
	<linearGradient id="SVGID_2_" gradientUnits="userSpaceOnUse" x1="121.9069" y1="378.6666" x2="675.1295" y2="-127.4139">
		<stop  offset="4.882813e-004" style="stop-color:#F6BF45"/>
		<stop  offset="1" style="stop-color:#27B89A"/>
	</linearGradient>
	<path fill="url(#SVGID_2_)" d="M400.8,504.1H111.2c-57.1,0-103.3-46.3-103.3-103.3V111.2C7.9,54.2,54.2,7.9,111.2,7.9h289.5
		c57.1,0,103.3,46.3,103.3,103.3v289.5C504.1,457.8,457.8,504.1,400.8,504.1z"/>
	<g>
		<g>
			<path fill="#FFFFFF" d="M233.1,352.7c0-0.4,0-0.9,0-1.3c0-1,0-2,0.1-3H131.3v-11.7c0-13.5,7.3-25.9,19.2-32.3l46.8-25.5
				c7.8-4.3,12.7-12.5,12.7-21.4v-21.1l-1-1.2l-0.2-0.3c0,0-0.3-0.4-0.9-1.1c0,0,0-0.1-0.1-0.1c-0.3-0.4-0.6-0.8-1-1.3c0,0,0,0,0,0
				c-0.8-1.1-1.8-2.5-2.9-4.2c0,0,0-0.1-0.1-0.1c-0.5-0.8-1.1-1.7-1.6-2.6c-0.1-0.1-0.1-0.1-0.1-0.2c-1.2-2-2.5-4.2-3.7-6.7
				c0,0,0,0,0,0c-0.7-1.3-1.3-2.7-2-4.2c-0.1-0.2-0.2-0.4-0.3-0.6c-0.3-0.6-0.6-1.3-0.9-2.1c-0.1-0.3-0.2-0.5-0.3-0.8
				c-0.3-0.7-0.6-1.4-0.8-2.2c-0.5-1.4-1-2.9-1.5-4.5l-0.3-0.9c0-0.1-0.1-0.2-0.1-0.3c-0.5-1.7-1-3.4-1.4-5.1l-0.5-2.1l-1.8-1.2
				c-3-2-4.8-5.2-4.8-8.8v-21c0-2.9,1.3-5.7,3.5-7.7l1.7-1.6v-34.5l-0.2-0.1c-0.2-3.8,0.1-15.4,8.5-25c8.7-9.9,23.5-14.9,44.1-14.9
				c20.5,0,35.2,5,44,14.8c10.2,11.5,8.5,26.3,8.5,26.4l0,33.3l1.7,1.6c2.3,2,3.5,4.8,3.5,7.7v21c0,4.6-3,8.6-7.4,10l-2.6,0.8
				l-0.8,2.6c-3.5,10.9-8.5,21-14.8,30c-1.6,2.2-3.1,4.2-4.4,5.7l-1.3,1.5V258c0,9.3,5.1,17.6,13.4,21.8l6.9,3.5
				c3.2,0.4,21.7-0.1,23.6,0.1l-25.9-12.9c-4.7-2.4-7.7-7.1-7.7-12.4v-17.7c1.2-1.5,2.5-3.2,3.8-5c6.5-9.2,11.7-19.4,15.5-30.4
				c7.4-3.4,12.2-10.7,12.2-18.9v-21c0-5-1.9-9.9-5.3-13.7v-27.9c0.3-2.9,1.5-20-11-34.2c-10.8-12.3-28.2-18.5-51.9-18.5
				c-23.7,0-41.2,6.2-52,18.5c-7.5,8.6-10,18.3-10.8,25.2l-0.2,12.1v24.8c-3.4,3.8-5.3,8.7-5.3,13.7v21c0,1.6,0.2,3.1,0.5,4.7
				c0.1,0.6,0.4,1.2,0.6,1.8c0.3,0.9,0.5,1.8,0.9,2.6c0,0,0,0,0,0c1.3,2.8,3.3,5.3,5.8,7.2c0,0.1,0.1,0.2,0.1,0.3
				c0.3,1.2,0.6,2.4,1,3.6l0.4,1.4c0.1,0.3,0.2,0.5,0.2,0.7c0.2,0.6,0.4,1.1,0.6,1.7c0.3,0.9,0.6,1.9,1,2.9c0.2,0.4,0.3,0.8,0.5,1.2
				c0.4,1.1,0.8,2.1,1.3,3.2c0.1,0.3,0.2,0.5,0.3,0.8l0.3,0.7c0.1,0.3,0.3,0.6,0.4,0.9c0.5,1.1,1,2.2,1.5,3.3
				c0.1,0.2,0.2,0.3,0.3,0.5c0.3,0.6,0.6,1.3,1,1.9c0.6,1.1,1.1,2.1,1.7,3.1c0.3,0.5,0.5,1,0.8,1.4c0.8,1.3,1.5,2.5,2.2,3.6
				c0.2,0.3,0.3,0.5,0.5,0.7c1.3,2,2.4,3.6,3.3,4.8c0.2,0.3,0.4,0.6,0.6,0.9c0.1,0.2,0.3,0.4,0.4,0.5v17.4c0,5.1-2.8,9.7-7.2,12.2
				l-13.9,7.6l-3.4,1.8l-29.5,16.1c-15.2,8.3-24.7,24.2-24.7,41.5v11.7h0c-0.2,3.6,0.4,7,0.4,10.5h112.1c-0.1-1.6-0.2-3.2-0.2-4.8
				C233,353.7,233.1,353.2,233.1,352.7z"/>
		</g>
		<g>
			<path fill="#FFFFFF" d="M263.7,377.6c-7.7,0-13.9,6.3-13.9,13.9c0,7.7,6.3,13.9,13.9,13.9c7.7,0,13.9-6.3,13.9-13.9
				C277.6,383.9,271.4,377.6,263.7,377.6L263.7,377.6z M263.7,396.5c-2.7,0-4.9-2.2-4.9-4.9c0-2.7,2.2-4.9,4.9-4.9
				c2.7,0,4.9,2.2,4.9,4.9C268.6,394.3,266.4,396.5,263.7,396.5L263.7,396.5z M263.7,396.5"/>
			<path fill="#FFFFFF" d="M263.7,418c-7.7,0-13.9,6.3-13.9,13.9c0,7.7,6.3,13.9,13.9,13.9c7.7,0,13.9-6.3,13.9-13.9
				C277.6,424.3,271.4,418,263.7,418L263.7,418z M263.7,436.9c-2.7,0-4.9-2.2-4.9-4.9c0-2.7,2.2-4.9,4.9-4.9c2.7,0,4.9,2.2,4.9,4.9
				C268.6,434.7,266.4,436.9,263.7,436.9L263.7,436.9z M263.7,436.9"/>
			<path fill="#FFFFFF" d="M386.8,305.8h-92.2c-2.5,0-4.5,2-4.5,4.5c0,2.5,2,4.5,4.5,4.5h92.2c2.5,0,4.5-2,4.5-4.5
				C391.3,307.8,389.2,305.8,386.8,305.8L386.8,305.8z M386.8,305.8"/>
			<path fill="#FFFFFF" d="M386.8,427.5h-92.2c-2.5,0-4.5,2-4.5,4.5c0,2.5,2,4.5,4.5,4.5h92.2c2.5,0,4.5-2,4.5-4.5
				C391.3,429.5,389.2,427.5,386.8,427.5L386.8,427.5z M386.8,427.5"/>
			<path fill="#FFFFFF" d="M386.8,386.9h-92.2c-2.5,0-4.5,2-4.5,4.5c0,2.5,2,4.5,4.5,4.5h92.2c2.5,0,4.5-2,4.5-4.5
				C391.3,388.9,389.2,386.9,386.8,386.9L386.8,386.9z M386.8,386.9"/>
			<path fill="#FFFFFF" d="M386.8,346.3h-92.2c-2.5,0-4.5,2-4.5,4.5c0,2.5,2,4.5,4.5,4.5h92.2c2.5,0,4.5-2,4.5-4.5
				C391.3,348.4,389.2,346.3,386.8,346.3L386.8,346.3z M386.8,346.3"/>
			<path fill="#FFFFFF" d="M279.4,298.8c-1.9-1.6-4.7-1.4-6.3,0.5l-12.2,14.1l-3.3-3.8c-1.6-1.9-4.5-2.1-6.4-0.5s-2.1,4.5-0.5,6.3
				l6.7,7.7c1.5,1.7,3.5,1.6,3.4,1.6c1.3,0,2.6-0.6,3.4-1.6l15.6-18.1C281.5,303.3,281.3,300.4,279.4,298.8L279.4,298.8z
				 M279.4,298.8"/>
			<path fill="#FFFFFF" d="M279.4,339.2c-1.9-1.6-4.7-1.4-6.3,0.5l-12.2,14.1l-3.3-3.8c-1.6-1.9-4.5-2.1-6.4-0.5
				c-1.9,1.6-2.1,4.5-0.5,6.3c6.1,6.4,6.7,9.3,10.1,9.3c0.1,0,2,0.1,3.4-1.6l15.6-18.1C281.5,343.6,281.3,340.8,279.4,339.2
				L279.4,339.2z M279.4,339.2"/>
		</g>
	</g>
</g>
<g>
	<linearGradient id="SVGID_3_" gradientUnits="userSpaceOnUse" x1="173.9748" y1="331.0356" x2="573.2075" y2="-34.1771">
		<stop  offset="4.882813e-004" style="stop-color:#ED4D5B"/>
		<stop  offset="1" style="stop-color:#F6BF45"/>
	</linearGradient>
	<path fill="url(#SVGID_3_)" d="M400.8,504.1H111.2c-57.1,0-103.3-46.3-103.3-103.3V111.2C7.9,54.2,54.2,7.9,111.2,7.9h289.5
		c57.1,0,103.3,46.3,103.3,103.3v289.5C504.1,457.8,457.8,504.1,400.8,504.1z"/>
	<g>
		<g>
			<defs>
				<rect id="SVGID_4_" x="110.5" y="97.3" width="307.6" height="308.3"/>
			</defs>
			<clipPath id="SVGID_5_">
				<use xlink:href="#SVGID_4_"  overflow="visible"/>
			</clipPath>
			<path clip-path="url(#SVGID_5_)" fill="#FFFFFF" d="M332.8,369.3H320V207.8c0-2.5-2-4.5-4.5-4.5c-2.5,0-4.5,2-4.5,4.5v161.5
				H174.4c-5.7,0-10.5,3.9-11.8,9.4c-2.1,9.3-9.5,16.6-21.3,17.1c-13.8-0.8-21.8-11.4-21.8-22.5V130.6c0-4.3,3.5-7.8,7.8-7.8h8.3
				c2.5,0,4.5-2,4.5-4.5c0-2.5-2-4.5-4.5-4.5h-8.3c-9.3,0-16.8,7.6-16.8,16.8v242.8c0,16.9,13.6,31.5,31,31.5h171.9
				c13.6,0,25.4-8.8,29.4-22C344.8,376.2,339.8,369.3,332.8,369.3L332.8,369.3z M334.2,380.3c-2.8,9.3-11.1,15.6-20.7,15.6H163.2
				c4-4,6.9-9.2,8.2-15.1c0.3-1.4,1.5-2.4,3-2.4c166.2,0.4,158.5-0.7,159.5,0.6C334.1,379.2,334.4,379.6,334.2,380.3L334.2,380.3z
				 M334.2,380.3"/>
			<path clip-path="url(#SVGID_5_)" fill="#FFFFFF" d="M416.2,150.3l-14.4-11.7c-1.1-13.9-12.8-24.8-27-24.8
				c-14.9,0-27.1,12.1-27.1,27.1v96.8c0,5,3,9.3,7.4,11.1v121c0,17.6,10.5,26.7,13.7,32c3,4.1,9.1,4.1,12.1,0
				c3.2-5.5,13.7-14.4,13.7-32v-40.3c0-2.5-2-4.5-4.5-4.5c-2.5,0-4.5,2-4.5,4.5v19.3h-21.4v-98.6h21.4v76.5c0,2.5,2,4.5,4.5,4.5
				c2.5,0,4.5-2,4.5-4.5v-78c4.3-1.8,7.4-6.1,7.4-11.1v-87.3l7,5.7v115.2c0,2.5,2,4.5,4.5,4.5c2.5,0,4.5-2,4.5-4.5V153.8
				C417.8,152.4,417.2,151.1,416.2,150.3L416.2,150.3z M374.8,394.7c-3.8-5.4-5.2-7-6.7-9.6h13.3C380,387.7,378.6,389.3,374.8,394.7
				L374.8,394.7z M385.5,357.8c-0.1,10.5,0.4,13.3-0.7,18.4h-20.1c-1-5-0.5-7.8-0.7-18.4H385.5z M392.9,237.6c0,1.7-1.4,3.1-3.1,3.1
				h-29.9c-1.7,0-3.1-1.4-3.1-3.1v-96.8c0-10,8.1-18.1,18.1-18.1c10,0,18.1,8.1,18.1,18.1C392.9,152.9,392.9,225.5,392.9,237.6
				L392.9,237.6z M392.9,237.6"/>
		</g>
		<path fill="#FFFFFF" d="M158.9,264.7c-7.7,0-13.9,6.3-13.9,13.9c0,7.7,6.3,14,13.9,14c7.7,0,14-6.3,14-14
			C172.9,270.9,166.6,264.7,158.9,264.7L158.9,264.7z M158.9,283.6c-2.7,0-4.9-2.2-4.9-4.9c0-2.7,2.2-4.9,4.9-4.9
			c2.7,0,4.9,2.2,4.9,4.9C163.9,281.3,161.6,283.6,158.9,283.6L158.9,283.6z M158.9,283.6"/>
		<path fill="#FFFFFF" d="M158.9,305c-7.7,0-13.9,6.3-13.9,14c0,7.7,6.3,14,13.9,14c7.7,0,14-6.3,14-14
			C172.9,311.3,166.6,305,158.9,305L158.9,305z M158.9,323.9c-2.7,0-4.9-2.2-4.9-4.9c0-2.7,2.2-4.9,4.9-4.9c2.7,0,4.9,2.2,4.9,4.9
			C163.9,321.7,161.6,323.9,158.9,323.9L158.9,323.9z M158.9,323.9"/>
		<path fill="#FFFFFF" d="M282,192.8h-92.2c-2.5,0-4.5,2-4.5,4.5c0,2.5,2,4.5,4.5,4.5H282c2.5,0,4.5-2,4.5-4.5
			C286.5,194.8,284.5,192.8,282,192.8L282,192.8z M282,192.8"/>
		<path fill="#FFFFFF" d="M282,314.5h-92.2c-2.5,0-4.5,2-4.5,4.5c0,2.5,2,4.5,4.5,4.5H282c2.5,0,4.5-2,4.5-4.5
			C286.5,316.5,284.5,314.5,282,314.5L282,314.5z M282,314.5"/>
		<path fill="#FFFFFF" d="M282,273.9h-92.2c-2.5,0-4.5,2-4.5,4.5c0,2.5,2,4.5,4.5,4.5H282c2.5,0,4.5-2,4.5-4.5
			C286.5,275.9,284.5,273.9,282,273.9L282,273.9z M282,273.9"/>
		<path fill="#FFFFFF" d="M282,233.3h-92.2c-2.5,0-4.5,2-4.5,4.5c0,2.5,2,4.5,4.5,4.5H282c2.5,0,4.5-2,4.5-4.5
			C286.5,235.4,284.5,233.3,282,233.3L282,233.3z M282,233.3"/>
		<path fill="#FFFFFF" d="M174.6,185.8c-1.9-1.6-4.7-1.4-6.3,0.5l-12.2,14.1l-3.3-3.8c-1.6-1.9-4.5-2.1-6.4-0.5
			c-1.9,1.6-2.1,4.5-0.5,6.4l6.7,7.7c1.5,1.7,3.5,1.6,3.4,1.6c1.3,0,2.6-0.6,3.4-1.6l15.6-18.1C176.7,190.3,176.5,187.4,174.6,185.8
			L174.6,185.8z M174.6,185.8"/>
		<path fill="#FFFFFF" d="M174.6,226.2c-1.9-1.6-4.7-1.4-6.3,0.5l-12.2,14.1l-3.3-3.8c-1.6-1.9-4.5-2.1-6.4-0.5
			c-1.9,1.6-2.1,4.5-0.5,6.3c6.1,6.4,6.7,9.3,10.1,9.3c0.1,0,2,0.1,3.4-1.6l15.6-18.1C176.7,230.6,176.5,227.8,174.6,226.2
			L174.6,226.2z M174.6,226.2"/>
		<path fill="#FFFFFF" d="M303.1,113.7h-60.2v-3.6c0-6.9-5.7-12.6-12.6-12.6h-30.1c-7,0-12.6,5.7-12.6,12.6v3.6h-49.2
			c-2.5,0-4.5,2-4.5,4.5c0,2.5,2,4.5,4.5,4.5h28.9c-2.4,8.1,3.7,16.2,12.1,16.2h71.7c8.4,0,14.5-8.1,12.1-16.2h40
			c4.3,0,7.8,3.5,7.8,7.8V205c0,2.5,2,4.5,4.5,4.5c2.5,0,4.5-2,4.5-4.5v-74.5C320,121.3,312.4,113.7,303.1,113.7L303.1,113.7z
			 M251.1,129.9h-71.7c-2,0-3.6-1.6-3.6-3.6c0-2,1.6-3.6,3.6-3.6h12.7c2.5,0,4.5-2,4.5-4.5v-8.1c0-2,1.6-3.6,3.6-3.6h30.1
			c2,0,3.6,1.6,3.6,3.6v8.1c0,2.5,2,4.5,4.5,4.5h12.7c2,0,3.6,1.6,3.6,3.6C254.7,128.3,253.1,129.9,251.1,129.9L251.1,129.9z
			 M251.1,129.9"/>
	</g>
</g>
</svg>
