<?xml version="1.0" encoding="utf-8"?>
<!-- Generator: Adobe Illustrator 21.0.0, SVG Export Plug-In . SVG Version: 6.00 Build 0)  -->
<svg version="1.1" id="Layer_1" xmlns="http://www.w3.org/2000/svg" xmlns:xlink="http://www.w3.org/1999/xlink" x="0px" y="0px"
	 viewBox="0 0 120 32.2" style="enable-background:new 0 0 120 32.2;" xml:space="preserve">
<style type="text/css">
	.st0{fill:#03A9F4;}
	.st1{fill-rule:evenodd;clip-rule:evenodd;fill:#03A9F4;}
</style>
<g>
	<path class="st0" d="M18.8,16.5c0,0,0-0.1,0-0.2v-0.2c0-0.4,0-1.2-0.1-2.3c0-1.1-0.1-2.4-0.1-4.1c0-1-0.1-1.9-0.1-2.8
		c0-0.9-0.1-1.6-0.2-2.3c-0.1-0.7-0.1-1.2-0.1-1.6c0-0.4-0.1-0.7-0.1-0.9l-2.6,0.3c0,0.1,0,0.3,0.1,0.7c0,0.4,0.1,0.9,0.1,1.6
		c0,0.6,0.1,1.4,0.1,2.3c0,0.9,0.1,1.8,0.1,2.8c0.1,1.6,0.1,3,0.2,4c0,1.1,0.1,1.8,0.1,2.2v0.4c0,1.4-0.2,2.3-0.7,2.8
		C15,19.7,14.3,20,13.3,20H12c0-0.7-0.1-1.4-0.2-2c-0.1-0.7-0.3-1.3-0.5-1.9c-0.2-0.6-0.5-1.2-0.8-1.7c-0.3-0.5-0.6-1-1-1.4
		c-1.1-1.2-2.2-1.7-3.5-1.7c-0.6,0-1.1,0.1-1.7,0.4c-0.5,0.3-1,0.7-1.5,1.3c-0.4,0.5-0.7,1.1-1,1.7c-0.3,0.7-0.5,1.4-0.6,2.1
		c-0.1,0.7-0.1,1.4,0,2.1c0.1,0.7,0.4,1.3,0.8,1.8c0.9,1.1,2.4,1.8,4.3,1.9c0.5,0,1,0.1,1.5,0.1c0.5,0,1,0,1.3,0
		c-0.1,0.7-0.4,1.4-0.8,2.1c-0.5,0.7-1.1,1.4-1.9,2c-0.8,0.6-1.7,1.2-2.8,1.7c-1.1,0.5-2.3,0.9-3.7,1.2l0.6,2.6
		c1.3-0.2,2.6-0.6,3.8-1.1c1.2-0.5,2.3-1.2,3.4-2c1-0.8,1.9-1.7,2.6-2.8c0.7-1.1,1.2-2.3,1.5-3.6h1.5c1.8,0,3.1-0.5,4.1-1.4
		c0.3-0.3,0.6-0.7,0.8-1.1c0.2-0.4,0.3-0.8,0.4-1.2c0.1-0.4,0.2-0.8,0.2-1.2C18.8,17.2,18.8,16.8,18.8,16.5z M8.1,19.9
		c-0.5,0-1,0-1.6,0c-0.2,0-0.4,0-0.6-0.1c-0.2,0-0.4-0.1-0.7-0.1c-0.2-0.1-0.4-0.2-0.6-0.3c-0.2-0.1-0.4-0.3-0.5-0.4
		c-0.2-0.2-0.3-0.4-0.3-0.8c0-0.3,0-0.7,0-1.1c0-0.4,0.1-0.8,0.3-1.2c0.1-0.4,0.3-0.7,0.5-1.1c0.2-0.3,0.4-0.6,0.6-0.8
		c0.2-0.2,0.5-0.3,0.7-0.3c0.2,0,0.3,0,0.5,0.1C6.5,14,6.7,14,6.8,14.1c0.1,0.1,0.3,0.2,0.4,0.3c0.1,0.1,0.2,0.2,0.3,0.3
		c0.2,0.3,0.4,0.6,0.7,0.9c0.2,0.4,0.4,0.8,0.6,1.2c0.2,0.4,0.3,0.9,0.4,1.4c0.1,0.5,0.2,1.1,0.2,1.6C9,19.9,8.6,19.9,8.1,19.9z"/>
	<path id="XMLID_15_" class="st0" d="M68.7,22.5c0.1,0,0.3,0.1,0.4,0.1h0.3C69.2,22.6,68.9,22.6,68.7,22.5z"/>
	<path class="st0" d="M78.3,13.4c-0.1-0.4-0.3-0.9-0.4-1.2c-0.2-0.4-0.3-0.7-0.4-1c-0.1-0.3-0.2-0.5-0.3-0.7
		C77,10.2,77,10.1,77,10.1l-2.4,1.2c0.2,0.3,0.3,0.7,0.4,1c0.1,0.3,0.3,0.6,0.4,0.9c0.1,0.3,0.2,0.6,0.3,0.9c0.3,1,0.5,1.8,0.5,2.5
		c0.1,0.7,0,1.3-0.2,1.7c-0.1,0.3-0.3,0.5-0.5,0.6c-0.2,0.2-0.5,0.3-0.8,0.5c-0.3,0.1-0.6,0.2-1,0.3c-0.4,0.1-0.7,0.1-1.1,0.2
		c-0.4,0-0.8,0.1-1.1,0.1c-0.4,0-0.7,0-1,0h-1.2c-1.3,0-2.3-1.1-3-3.3c-0.1-0.3-0.2-0.6-0.3-0.9c-0.1-0.3-0.1-0.6-0.2-0.9
		c-0.1-0.3-0.1-0.5-0.1-0.8c0-0.2-0.1-0.5-0.1-0.6c0-0.5,0-0.7-0.1-0.8l-2.6,0.2c0,0,0,0.1,0,0.2c0,0.1,0,0.3,0,0.5
		c0,0.3,0,0.6,0,0.9c0,0.3,0,0.7,0,1.1c-0.1,0.9-0.2,1.6-0.4,2.3c-0.2,0.6-0.4,1.1-0.7,1.5c-0.3,0.3-0.7,0.5-1.1,0.5
		c-0.3,0-0.6-0.1-0.7-0.1c-0.2-0.1-0.3-0.2-0.4-0.3c-0.3-0.3-0.4-0.8-0.6-1.4c-0.1-0.6-0.2-1.3-0.1-2.1c0-0.4,0-0.7,0.1-1.1
		c0-0.3,0.1-0.6,0.1-0.9c0-0.2,0.1-0.4,0.1-0.5c0-0.1,0-0.2,0.1-0.2l-2.6-0.5c0,0,0,0.1,0,0.2c0,0.1-0.1,0.3-0.1,0.5
		c-0.1,0.3-0.1,0.6-0.2,1c-0.1,0.4-0.2,0.8-0.4,1.3c-0.3,1-0.7,1.8-1,2.4c-0.4,0.7-0.8,1.1-1.2,1.4c-0.3,0.2-0.6,0.3-1,0.3
		c-0.1,0-0.2,0-0.3,0c-0.3,0-0.5-0.2-0.6-0.4c-0.2-0.3-0.3-0.8-0.4-1.3c-0.1-0.6,0-1.3,0.1-2.1c0.1-0.5,0.1-0.9,0.2-1.3
		c0.1-0.4,0.1-0.7,0.2-0.9c0-0.1,0-0.2,0.1-0.2c0-0.1,0-0.1,0-0.1l-2.6-0.7c0,0,0,0.1-0.1,0.3c0,0.1-0.1,0.3-0.2,0.6
		c-0.1,0.2-0.2,0.5-0.3,0.8c-0.1,0.3-0.2,0.6-0.4,1c-0.1,0.4-0.3,0.7-0.5,1.1c-0.2,0.4-0.4,0.7-0.7,1.1c-0.2,0.4-0.5,0.7-0.8,1.1
		c-0.3,0.3-0.6,0.6-1,0.8C45.4,19.9,45,20,44.6,20h-0.1c0,0,0,0,0,0c0,0,0,0,0,0h-0.6c-0.5,0-1-0.1-1.4-0.2
		c-0.4-0.1-0.8-0.3-1.1-0.6c-0.3-0.2-0.7-0.5-1-0.9c-0.3-0.3-0.6-0.7-0.8-1.2c-0.3-0.6-0.7-1.1-1-1.7c-0.3-0.6-0.6-1.1-0.9-1.7
		c-0.3-0.6-0.6-1.1-0.9-1.7c-0.3-0.6-0.7-1.1-1.1-1.7c-0.4-0.6-0.9-1.1-1.4-1.7c-0.5-0.6-1.1-1.1-1.8-1.7l10.7-4.5l-1-2.5L30.2,5.2
		l-0.4,3c0.4,0.3,0.8,0.7,1.3,1.1c0.5,0.4,0.9,0.9,1.4,1.4s0.9,1,1.4,1.6c0.4,0.6,0.8,1.1,1.1,1.7c0.3,0.6,0.6,1.1,0.7,1.7
		c0.2,0.6,0.2,1.1,0.2,1.6c0,0.3-0.1,0.6-0.3,1c-0.2,0.3-0.4,0.6-0.7,0.8c-0.3,0.2-0.6,0.4-1,0.6c-0.4,0.1-0.7,0.2-1.1,0.2h-2.2
		c0-0.7-0.1-1.4-0.2-2c-0.1-0.7-0.3-1.3-0.5-1.9c-0.2-0.6-0.5-1.2-0.8-1.7c-0.3-0.5-0.6-1-1-1.4c-1.1-1.2-2.2-1.7-3.5-1.7
		c-0.6,0-1.1,0.1-1.7,0.4c-0.5,0.3-1,0.7-1.5,1.3c-0.4,0.5-0.7,1.1-1,1.7c-0.3,0.7-0.5,1.4-0.6,2.1c-0.1,0.7-0.1,1.4,0,2.1
		c0.1,0.7,0.4,1.3,0.8,1.8c0.9,1.1,2.4,1.8,4.3,1.9c0.5,0,1,0.1,1.5,0.1c0.5,0,1,0,1.3,0c-0.1,0.7-0.4,1.4-0.8,2.1
		c-0.5,0.7-1.1,1.4-1.9,2c-0.8,0.6-1.7,1.2-2.8,1.7c-1.1,0.5-2.3,0.9-3.7,1.2l0.6,2.6c1.3-0.2,2.6-0.6,3.8-1.1
		c1.2-0.5,2.3-1.2,3.4-2c1-0.8,1.9-1.7,2.6-2.8c0.7-1.1,1.2-2.3,1.5-3.6h2.2c0.4,0,0.7-0.1,1.1-0.1c0.4-0.1,0.7-0.1,1.1-0.2
		c0.4-0.1,0.7-0.3,1-0.4c0.3-0.2,0.6-0.4,0.9-0.7c0.5-0.4,0.8-0.9,1.2-1.5c0.4,0.5,0.9,1,1.4,1.5c0.5,0.5,1.1,0.8,1.8,1
		c0.5,0.2,0.9,0.3,1.4,0.4c0.5,0.1,1.1,0.1,1.7,0.1h0.3c1.3,0,2.6-0.5,3.7-1.6c0.3-0.3,0.6-0.6,0.9-1c0.1,0.2,0.1,0.4,0.2,0.5
		c0.1,0.2,0.2,0.3,0.2,0.5c0.6,0.9,1.4,1.4,2.4,1.6c0.1,0,0.2,0,0.4,0c0.1,0,0.2,0,0.4,0c0.9,0,1.7-0.3,2.5-0.8
		c0.6-0.4,1.1-1,1.6-1.8c0.1,0.2,0.2,0.4,0.3,0.6c0.1,0.2,0.2,0.4,0.4,0.5c0.4,0.5,0.9,0.9,1.4,1.1c0.5,0.3,1.2,0.4,1.8,0.4
		c0.6,0,1.2-0.1,1.7-0.4c0.5-0.2,1-0.6,1.4-1c0.3-0.4,0.6-0.8,0.9-1.4c0.2,0.4,0.5,0.7,0.7,1c0.5,0.6,1.1,1,1.7,1.3
		c0.4,0.2,0.9,0.3,1.3,0.4c0,0,0,0,0,0c0.2,0,0.5,0.1,0.7,0.1h1.7c0.2,0,0.5,0,0.8,0c0.4,0,0.7,0,1.1,0c0.4,0,0.8,0,1.2-0.1
		c0.4,0,0.7-0.1,0.9-0.2c1.6-0.5,2.8-1.4,3.4-2.9C79.2,18,79.1,16,78.3,13.4z M26.8,19.9c-0.5,0-1,0-1.6,0c-0.2,0-0.4,0-0.6-0.1
		c-0.2,0-0.4-0.1-0.7-0.1c-0.2-0.1-0.4-0.2-0.6-0.3c-0.2-0.1-0.4-0.3-0.5-0.4c-0.2-0.2-0.3-0.4-0.3-0.8c0-0.3,0-0.7,0-1.1
		c0-0.4,0.1-0.8,0.3-1.2c0.1-0.4,0.3-0.7,0.5-1.1c0.2-0.3,0.4-0.6,0.6-0.8c0.2-0.2,0.5-0.3,0.7-0.3c0.2,0,0.3,0,0.5,0.1
		c0.1,0.1,0.3,0.1,0.4,0.2c0.1,0.1,0.3,0.2,0.4,0.3c0.1,0.1,0.2,0.2,0.3,0.3c0.2,0.3,0.4,0.6,0.7,0.9c0.2,0.4,0.4,0.8,0.6,1.2
		c0.2,0.4,0.3,0.9,0.4,1.4c0.1,0.5,0.2,1.1,0.2,1.6C27.7,19.9,27.3,19.9,26.8,19.9z"/>
	<polygon id="XMLID_16_" class="st0" points="72.8,5.9 70.6,8 68.4,5.8 70.6,3.6 	"/>
	<polygon id="XMLID_17_" class="st0" points="77.3,5.9 75.1,8.1 72.9,5.9 75.1,3.7 	"/>
</g>
<path class="st1" d="M119.3,5.4c-0.3-2.2-2.5-4.4-4.7-4.7C111,0.2,107.5,0,103.9,0c-3.6,0-7.1,0.2-10.7,0.7C91,1,88.8,3.2,88.5,5.4
	c-0.9,7.1-0.9,14.3,0,21.4c0.3,2.2,2.5,4.4,4.7,4.7c3.6,0.5,7.1,0.7,10.7,0.7c3.6,0,7.1-0.2,10.7-0.7c2.2-0.3,4.4-2.5,4.7-4.7
	C120.2,19.7,120.2,12.5,119.3,5.4z M108.3,26.6c-0.4,0.4-1.1,0.4-1.5,0l-8.9-8.8c-1-1-1-2.5,0-3.5l8.8-8.9c0.4-0.4,1.1-0.4,1.5,0
	c0.4,0.4,0.4,1.1,0,1.5l-8.4,8.4c-0.3,0.4-0.3,0.9,0,1.3l8.4,8.4C108.8,25.5,108.8,26.2,108.3,26.6z M109.6,23.2
	c-0.2,0.2-0.4,0.3-0.6,0.3c-0.2,0-0.4-0.1-0.6-0.3l-6.2-6.2c-0.3-0.3-0.4-0.6-0.4-1c0-0.4,0.1-0.7,0.4-1l6.2-6.2
	c0.3-0.3,0.9-0.3,1.2,0c0.2,0.2,0.3,0.4,0.3,0.6c0,0.2-0.1,0.5-0.3,0.6l-5.6,5.6c-0.1,0.1-0.1,0.2-0.1,0.3c0,0.1,0,0.2,0.1,0.3
	l5.6,5.6c0.2,0.2,0.3,0.4,0.3,0.6C109.8,22.9,109.8,23.1,109.6,23.2z"/>
</svg>
