<?xml version="1.0" encoding="utf-8"?>
<!-- Generator: Adobe Illustrator 21.0.0, SVG Export Plug-In . SVG Version: 6.00 Build 0)  -->
<svg version="1.1" id="Layer_1" xmlns="http://www.w3.org/2000/svg" xmlns:xlink="http://www.w3.org/1999/xlink" x="0px" y="0px"
	 width="708.8px" height="190px" viewBox="0 0 708.8 190" style="enable-background:new 0 0 708.8 190;" xml:space="preserve">
<style type="text/css">
	.st0{fill:#FFFFFF;}
	.st1{fill-rule:evenodd;clip-rule:evenodd;fill:#FFFFFF;}
</style>
<g>
	<path class="st0" d="M111,97.5c-0.1-0.3-0.1-0.6-0.1-0.9v-1.2c0-2.4-0.1-6.9-0.4-13.3c-0.2-6.4-0.5-14.4-0.8-24
		c-0.3-5.8-0.5-11.3-0.8-16.3c-0.3-5-0.6-9.5-0.9-13.4c-0.3-3.9-0.6-7.1-0.8-9.6c-0.2-2.5-0.4-4.2-0.4-5.1L91,15.4
		c0,0.5,0.2,1.9,0.4,4.3c0.2,2.4,0.5,5.4,0.8,9.3c0.3,3.8,0.5,8.3,0.8,13.3c0.3,5.1,0.5,10.5,0.8,16.4c0.4,9.5,0.7,17.4,1,23.8
		c0.3,6.4,0.4,10.8,0.4,13.1v2.1c0.1,8.1-1.3,13.5-4.1,16.4c-2.5,2.5-6.8,3.8-12.8,3.8h-7.4c-0.1-4-0.5-8-1.3-11.9
		c-0.8-3.9-1.8-7.7-3-11.2c-1.3-3.6-2.8-6.9-4.6-10.1c-1.8-3.1-3.8-5.9-6.1-8.4C49.6,69.4,42.7,66,35.1,66c-3.4,0-6.7,0.9-9.9,2.6
		c-3.2,1.7-6.1,4.3-8.8,7.6c-2.2,2.9-4.2,6.3-5.8,10.2c-1.7,4-2.8,8-3.4,12.3c-0.6,4.2-0.6,8.3,0.1,12.4c0.7,4,2.2,7.6,4.7,10.7
		c5.5,6.8,14,10.6,25.6,11.3c2.9,0.3,5.9,0.4,9,0.4c3,0,5.7,0,7.9,0c-0.6,4-2.2,8-4.9,12.2c-2.7,4.1-6.3,8-11,11.7
		c-4.6,3.7-10.2,7-16.6,9.9c-6.5,2.9-13.8,5.2-22,6.9l3.7,15.4c7.7-1.2,15.2-3.3,22.5-6.4c7.3-3,13.9-6.9,19.8-11.6
		c5.9-4.7,11-10.3,15.1-16.6c4.2-6.3,7-13.4,8.6-21.3h8.6c10.5,0,18.6-2.8,24.1-8.4c2-2,3.5-4.2,4.7-6.6c1.1-2.4,2-4.8,2.6-7.2
		c0.6-2.4,1-4.8,1.1-7.2C111,101.7,111,99.5,111,97.5z M47.8,117.7c-2.8,0.1-5.9,0-9.2-0.2c-1-0.1-2.1-0.2-3.4-0.4
		c-1.3-0.2-2.6-0.5-3.9-0.9c-1.3-0.4-2.6-0.9-3.8-1.6c-1.2-0.7-2.2-1.5-3-2.6c-0.9-1.1-1.5-2.6-1.8-4.6c-0.3-1.9-0.2-4,0-6.3
		c0.3-2.2,0.8-4.5,1.5-6.8c0.8-2.3,1.7-4.4,2.8-6.2c1.1-1.9,2.3-3.4,3.7-4.6c1.4-1.2,2.8-1.8,4.4-1.8c0.9,0,1.8,0.2,2.7,0.5
		c0.9,0.3,1.7,0.7,2.5,1.2c0.8,0.5,1.5,1.1,2.1,1.7c0.7,0.6,1.3,1.2,1.8,1.7c1.3,1.5,2.6,3.4,3.9,5.5c1.3,2.1,2.4,4.5,3.4,7
		s1.8,5.4,2.4,8.5c0.6,3,1,6.2,1.2,9.6C53,117.5,50.6,117.6,47.8,117.7z"/>
	<path id="XMLID_15_" class="st0" d="M405.6,133.1c0.7,0.2,1.5,0.3,2.3,0.3h2C408.5,133.5,407,133.4,405.6,133.1z"/>
	<path class="st0" d="M462.4,79.1c-0.8-2.6-1.6-5-2.5-7.4c-0.9-2.3-1.7-4.3-2.5-6.1c-0.8-1.8-1.4-3.1-1.9-4.2
		c-0.5-1-0.8-1.6-0.8-1.6l-14.2,7c0.9,2,1.8,3.9,2.6,6c0.7,1.7,1.5,3.5,2.3,5.5c0.8,2,1.5,3.8,2,5.5c1.7,5.6,2.8,10.5,3.2,14.8
		c0.5,4.2,0.1,7.5-0.9,9.8c-0.7,1.5-1.7,2.8-3.1,3.8c-1.4,1.1-3,2-4.8,2.7c-1.8,0.7-3.8,1.3-5.9,1.7c-2.2,0.4-4.3,0.7-6.6,0.9
		c-2.2,0.2-4.4,0.3-6.6,0.4c-2.2,0-4.2,0-6.1,0h-6.8c-7.5,0-13.4-6.5-17.6-19.4c-0.6-1.8-1.1-3.6-1.5-5.5c-0.4-1.8-0.8-3.6-1.1-5.3
		c-0.3-1.7-0.6-3.2-0.8-4.7c-0.2-1.4-0.4-2.7-0.5-3.8c-0.1-2.7-0.2-4.2-0.3-4.5L372.5,76c0,0,0,0.5,0,1.3c0,0.8,0.1,1.9,0.3,3.2
		c0.1,1.5,0.2,3.2,0.2,5.3c0,2-0.1,4.3-0.2,6.6c-0.3,5.2-1,9.7-2.1,13.5c-1.1,3.8-2.5,6.7-4.3,8.7c-1.7,1.9-3.9,2.9-6.7,2.9
		c-2,0-3.4-0.3-4.4-0.9c-1-0.6-1.8-1.2-2.4-2c-1.5-1.8-2.6-4.5-3.3-8c-0.7-3.6-0.9-7.8-0.6-12.6c0-2.2,0.2-4.3,0.4-6.3
		c0.2-2,0.5-3.7,0.7-5c0.3-1.4,0.5-2.5,0.6-3.2c0.1-0.8,0.2-1.2,0.3-1.2l-15.5-3c0,0.1-0.1,0.6-0.2,1.3c-0.2,0.8-0.4,1.8-0.6,3.1
		c-0.3,1.7-0.8,3.6-1.3,6c-0.6,2.3-1.3,4.8-2.2,7.4c-1.8,5.6-3.9,10.4-6.1,14.2c-2.3,3.9-4.6,6.7-7,8.5c-1.9,1.3-3.8,2-5.8,2
		c-0.5,0-1.1-0.1-1.8-0.2c-1.6-0.2-2.8-0.9-3.5-2.3c-1.1-1.8-1.8-4.5-2.2-7.9c-0.3-3.5-0.2-7.5,0.4-12.1c0.4-2.9,0.9-5.5,1.3-7.8
		c0.5-2.3,0.9-4.1,1.2-5.3c0.2-0.6,0.3-1,0.4-1.4c0.1-0.3,0.1-0.5,0.2-0.6L292.9,76c0,0-0.1,0.7-0.4,1.9c-0.3,0.9-0.6,2-1.1,3.5
		c-0.4,1.5-1,3.1-1.7,4.9s-1.5,3.8-2.4,5.9c-0.9,2.1-1.9,4.2-3,6.3c-1.2,2.2-2.5,4.4-4,6.7c-1.5,2.3-3.1,4.4-4.8,6.2
		c-1.8,1.9-3.6,3.4-5.7,4.6c-2,1.2-4.1,1.8-6.4,1.8h-0.8c0,0,0,0,0,0c0,0-0.1,0-0.1,0h-3.3c-3,0-5.7-0.5-8.2-1.3
		c-2.5-0.8-4.7-2-6.8-3.4c-2-1.4-3.9-3.2-5.7-5.2c-1.8-2-3.4-4.3-4.9-6.9c-2-3.4-3.9-6.8-5.7-10.1c-1.8-3.4-3.5-6.7-5.3-10
		c-1.8-3.3-3.6-6.6-5.6-9.9c-1.9-3.3-4.1-6.6-6.6-9.9c-2.5-3.3-5.2-6.6-8.2-9.8c-3-3.3-6.6-6.5-10.6-9.8l63.2-26.5l-6.1-14.5
		L178.4,31l-2.1,17.6c2.4,1.9,5,4,7.8,6.6c2.8,2.5,5.6,5.3,8.4,8.3s5.5,6.2,8,9.5c2.5,3.3,4.8,6.7,6.7,10.1
		c1.9,3.4,3.4,6.8,4.4,10.1c1,3.3,1.4,6.5,1.2,9.5c-0.2,1.9-0.8,3.8-2,5.6c-1.2,1.8-2.6,3.5-4.3,4.9c-1.7,1.4-3.7,2.6-5.8,3.4
		c-2.2,0.9-4.3,1.3-6.4,1.3h-13c-0.1-4-0.5-8-1.3-11.9c-0.7-3.9-1.8-7.7-3-11.2c-1.3-3.6-2.8-6.9-4.6-10.1c-1.8-3.1-3.8-5.9-6.1-8.4
		C160,69.4,153,66,145.5,66c-3.4,0-6.7,0.9-9.9,2.6c-3.2,1.7-6.1,4.3-8.8,7.6c-2.2,2.9-4.2,6.3-5.8,10.2c-1.6,4-2.8,8-3.4,12.3
		c-0.6,4.2-0.6,8.3,0.1,12.4c0.7,4,2.2,7.6,4.7,10.7c5.5,6.8,14,10.6,25.6,11.3c2.9,0.3,5.9,0.4,9,0.4c3,0,5.7,0,7.9,0
		c-0.6,4-2.2,8-4.9,12.2c-2.7,4.1-6.3,8-11,11.7c-4.6,3.7-10.2,7-16.6,9.9c-6.5,2.9-13.8,5.2-22,6.9l3.7,15.4
		c7.7-1.2,15.2-3.3,22.5-6.4c7.3-3,13.9-6.9,19.8-11.6c5.9-4.7,11-10.3,15.1-16.6c4.2-6.3,7.1-13.4,8.6-21.3h13.2
		c2.2-0.1,4.3-0.3,6.5-0.6c2.2-0.3,4.3-0.8,6.4-1.4c2.1-0.6,4.1-1.5,6-2.6c1.9-1.1,3.8-2.4,5.5-3.9c2.7-2.5,5-5.5,6.9-8.9
		c2.4,3.1,5.2,6,8.4,8.6c3.2,2.7,6.7,4.7,10.4,6.1c2.8,0.9,5.6,1.6,8.5,2.1c2.9,0.5,6.2,0.7,10.1,0.7h1.6c7.9,0,15.2-3.2,21.7-9.6
		c1.8-1.7,3.6-3.7,5.3-6c0.4,1.1,0.9,2.1,1.3,3.1c0.4,1,0.9,1.9,1.4,2.8c3.4,5.2,8.2,8.4,14.4,9.5c0.7,0.1,1.5,0.2,2.1,0.3
		c0.7,0.1,1.4,0.1,2.2,0.1c5.3,0,10.3-1.7,15-5c3.5-2.7,6.7-6.2,9.7-10.5c0.5,1.2,1.1,2.4,1.8,3.4c0.6,1.1,1.3,2.1,2.1,3
		c2.3,2.9,5,5.1,8.3,6.6c3.2,1.5,6.8,2.3,10.8,2.3c3.7,0,7.1-0.7,10.2-2.1c3.1-1.4,5.9-3.5,8.3-6.2c2-2.2,3.8-4.9,5.3-8.2
		c1.4,2.3,2.9,4.3,4.4,6c3,3.4,6.3,6.1,10.1,7.8c2.5,1.2,5,2,7.8,2.4c0,0,0,0,0,0c1.4,0.2,2.8,0.3,4.3,0.3h10.3c1.2,0,2.8,0,4.9,0
		c2.1,0,4.4-0.1,6.7-0.2c2.3-0.1,4.6-0.3,6.8-0.5c2.2-0.2,4.1-0.6,5.5-1c9.6-2.7,16.3-8.3,20.1-16.9
		C468,106.3,467.3,94.4,462.4,79.1z M158.2,117.7c-2.8,0.1-5.9,0-9.2-0.2c-1-0.1-2.1-0.2-3.4-0.4c-1.3-0.2-2.6-0.5-3.9-0.9
		c-1.3-0.4-2.6-0.9-3.8-1.6c-1.2-0.7-2.2-1.5-3-2.6c-0.9-1.1-1.5-2.6-1.8-4.6c-0.3-1.9-0.2-4,0-6.3c0.3-2.2,0.8-4.5,1.5-6.8
		s1.7-4.4,2.8-6.2c1.1-1.9,2.3-3.4,3.7-4.6c1.4-1.2,2.8-1.8,4.4-1.8c0.9,0,1.8,0.2,2.7,0.5c0.9,0.3,1.7,0.7,2.5,1.2
		c0.8,0.5,1.5,1.1,2.1,1.7c0.7,0.6,1.3,1.2,1.8,1.7c1.3,1.5,2.6,3.4,3.9,5.5c1.3,2.1,2.4,4.5,3.4,7c1,2.6,1.8,5.4,2.4,8.5
		c0.6,3,1,6.2,1.2,9.6C163.4,117.5,161,117.6,158.2,117.7z"/>
	<polygon id="XMLID_16_" class="st0" points="430,34.6 417.1,47.5 404,34.5 416.9,21.5 	"/>
	<polygon id="XMLID_17_" class="st0" points="456.6,34.7 443.7,47.6 430.7,34.6 443.6,21.7 	"/>
</g>
<path class="st1" d="M704.7,31.8C702.8,18.7,690.1,6,676.9,4.1C655.8,1.4,634.8,0,613.7,0c-21.1,0-42.2,1.4-63.3,4.1
	c-13.1,1.8-25.9,14.6-27.7,27.7c-5.5,42.1-5.5,84.3,0,126.4c1.8,13.1,14.6,25.9,27.7,27.7c21.1,2.7,42.2,4.1,63.3,4.1
	c21.1,0,42.2-1.4,63.3-4.1c13.1-1.8,25.9-14.6,27.7-27.7C710.2,116.1,710.2,73.9,704.7,31.8z M639.9,157.4c-2.5,2.5-6.6,2.5-9.1,0
	l-52.4-51.9c-5.7-5.6-5.7-14.8-0.1-20.5l52-52.3c2.5-2.5,6.6-2.5,9.1,0c2.5,2.5,2.5,6.6,0,9.1L590,91.4c-2.1,2.1-2,5.4,0,7.5
	l49.8,49.4C642.4,150.8,642.4,154.8,639.9,157.4z M647.3,137.2c-1,1-2.3,1.5-3.7,1.5c-1.3,0-2.6-0.5-3.6-1.5l-36.7-36.5
	c-1.5-1.5-2.4-3.5-2.4-5.7c0-2.1,0.8-4.2,2.3-5.7l36.5-36.7c2-2,5.3-2,7.3,0c1,1,1.5,2.3,1.5,3.6c0,1.4-0.5,2.7-1.5,3.7l-33.1,33.3
	c-0.5,0.5-0.7,1.1-0.7,1.8c0,0.7,0.3,1.3,0.7,1.8l33.3,33.1c1,1,1.5,2.3,1.5,3.6C648.8,135,648.3,136.3,647.3,137.2z"/>
</svg>
