<?xml version="1.0" encoding="utf-8"?>
<!-- Generator: Adobe Illustrator 21.0.0, SVG Export Plug-In . SVG Version: 6.00 Build 0)  -->
<svg version="1.1" id="Layer_1" xmlns="http://www.w3.org/2000/svg" xmlns:xlink="http://www.w3.org/1999/xlink" x="0px" y="0px"
	 viewBox="0 0 150 150" style="enable-background:new 0 0 150 150;" xml:space="preserve">
<style type="text/css">
	.st0{fill:#03A9F4;}
</style>
<path class="st0" d="M146.7,25.2c-1.4-10.4-11.5-20.4-21.9-21.9C108.3,1.2,91.7,0.1,75,0.1S41.7,1.2,25.1,3.3
	C14.8,4.8,4.7,14.8,3.3,25.2C-1,58.4-1,91.6,3.3,124.9c1.5,10.3,11.5,20.4,21.9,21.9c16.6,2.2,33.3,3.2,49.9,3.2
	c16.6,0,33.3-1.1,49.9-3.2c10.4-1.5,20.4-11.5,21.9-21.9C151.1,91.6,151.1,58.4,146.7,25.2z M95.6,124.2c-2,2-5.2,2-7.1,0l-41.3-41
	c-4.5-4.5-4.5-11.7-0.1-16.2l41-41.3c2-2,5.2-2,7.1,0s2,5.2,0,7.1l-39,39.2c-1.6,1.6-1.6,4.3,0,5.9l39.3,39
	C97.6,119,97.6,122.2,95.6,124.2z M101.6,108.3c-0.8,0.8-1.8,1.2-2.9,1.2c-1.1,0-2.1-0.4-2.9-1.2l-29-28.8c-1.2-1.2-1.9-2.8-1.9-4.5
	s0.6-3.3,1.8-4.5l28.8-28.9c1.6-1.6,4.2-1.6,5.7,0c0.8,0.8,1.2,1.8,1.2,2.9c0,1.1-0.4,2.1-1.2,2.9L75.2,73.7
	c-0.4,0.4-0.6,0.9-0.6,1.4c0,0.5,0.2,1,0.6,1.4l26.3,26.1c0.8,0.8,1.2,1.8,1.2,2.9C102.7,106.5,102.3,107.5,101.6,108.3z"/>
</svg>
