<?xml version="1.0" encoding="utf-8"?>
<!-- Generator: Adobe Illustrator 21.0.0, SVG Export Plug-In . SVG Version: 6.00 Build 0)  -->
<svg version="1.1" id="Layer_1" xmlns="http://www.w3.org/2000/svg" xmlns:xlink="http://www.w3.org/1999/xlink" x="0px" y="0px"
	 viewBox="0 0 150 150" style="enable-background:new 0 0 150 150;" xml:space="preserve">
<style type="text/css">
	.st0{fill:#FFFFFF;}
</style>
<path class="st0" d="M146.8,25.2c-1.4-10.4-11.5-20.4-21.9-21.9C108.3,1.1,91.7,0,75,0S41.7,1.1,25.1,3.3
	C14.7,4.7,4.6,14.8,3.2,25.2c-4.3,33.2-4.3,66.5,0,99.7c1.5,10.3,11.6,20.4,21.9,21.9c16.7,2.2,33.3,3.2,49.9,3.2
	c16.7,0,33.3-1.1,49.9-3.2c10.4-1.5,20.4-11.5,21.9-21.9C151.2,91.6,151.2,58.4,146.8,25.2z M95.7,124.2c-2,2-5.2,2-7.2,0l-41.3-41
	c-4.5-4.5-4.5-11.7-0.1-16.2l41-41.3c2-2,5.2-2,7.2,0c2,2,2,5.2,0,7.2l-39,39.2c-1.6,1.6-1.6,4.3,0,5.9l39.3,39
	C97.7,119,97.7,122.2,95.7,124.2z M101.6,108.4c-0.8,0.8-1.8,1.2-2.9,1.2c-1.1,0-2.1-0.4-2.9-1.2l-29-28.8c-1.2-1.2-1.9-2.8-1.9-4.5
	c0-1.7,0.6-3.3,1.8-4.5l28.8-29c1.6-1.6,4.2-1.6,5.7,0c0.8,0.8,1.2,1.8,1.2,2.9c0,1.1-0.4,2.1-1.2,2.9L75.2,73.7
	c-0.4,0.4-0.6,0.9-0.6,1.4c0,0.5,0.2,1,0.6,1.4l26.3,26.1c0.8,0.8,1.2,1.8,1.2,2.9C102.8,106.5,102.3,107.5,101.6,108.4z"/>
</svg>
