<?xml version="1.0" encoding="UTF-8"?>
<svg width="400px" height="66px" viewBox="0 0 400 66" version="1.1" xmlns="http://www.w3.org/2000/svg" xmlns:xlink="http://www.w3.org/1999/xlink">
    <!-- Generator: Sketch 49 (51002) - http://www.bohemiancoding.com/sketch -->
    <title>Shape</title>
    <desc>Created with Sketch.</desc>
    <defs></defs>
    <g id="Page-1" stroke="none" stroke-width="1" fill="none" fill-rule="evenodd">
        <g id="logo-blue" fill="#03A9F4">
            <path d="M183,0 C180.666667,0 179,1.66666667 179,3.66666667 L179,61.6666667 C179,63.6666667 180.666667,65.3333333 182.666667,65.3333333 C184.666667,65.3333333 186.333333,63.6666667 186.333333,61.6666667 L186.333333,3.66666667 C187,1.66666667 185.333333,0 183,0 Z M198,34.6666667 C197,33.6666667 197,32 198,31 L223.333333,5.66666667 C224.666667,4.33333333 224.666667,2.33333333 223.333333,1 C222,-0.333333333 220,-0.333333333 218.666667,1 L192,27.6666667 C189,30.6666667 189,35.3333333 192,38 L218.666667,64.3333333 C220,65.6666667 222,65.6666667 223.333333,64.3333333 C224.666667,63 224.666667,61 223.333333,59.6666667 L198,34.6666667 Z M210,33.6666667 C209.666667,33.3333333 209.666667,33 209.666667,32.6666667 C209.666667,32.3333333 209.666667,32 210,31.6666667 L227,14.6666667 C227.333333,14.3333333 227.666667,13.6666667 227.666667,12.6666667 C227.666667,12 227.333333,11.3333333 227,10.6666667 C226,9.66666667 224.333333,9.66666667 223.333333,10.6666667 L204.666667,30 C203.666667,30.6666667 203.333333,31.6666667 203.333333,33 C203.333333,34 203.666667,35 204.666667,36 L223.333333,54.6666667 C224,55.3333333 224.666667,55.3333333 225.333333,55.3333333 C226,55.3333333 226.666667,55 227.333333,54.6666667 C227.666667,54.3333333 228,53.6666667 228,52.6666667 C228,52 227.666667,51.3333333 227.333333,50.6666667 L210,33.6666667 Z M47.6666667,0 L3.66666667,0 C1.66666667,0 0,1.66666667 0,3.66666667 C0,5.66666667 1.66666667,7.33333333 3.66666667,7.33333333 L18.3333333,7.33333333 C20.3333333,7.33333333 22,9 22,11 L22,62 C22,64 23.6666667,65.6666667 25.6666667,65.6666667 C27.6666667,65.6666667 29.3333333,64 29.3333333,62 L29.3333333,11 C29.3333333,9 31,7.33333333 33,7.33333333 L47.6666667,7.33333333 C49.6666667,7.33333333 51.3333333,5.66666667 51.3333333,3.66666667 C51.3333333,1.66666667 49.6666667,0 47.6666667,0 Z M135.333333,7.33333333 L164.666667,7.33333333 C166.666667,7.33333333 168.333333,5.66666667 168.333333,3.66666667 C168.333333,1.66666667 166.666667,0 164.666667,0 L135.333333,0 C125.333333,0 117,8.33333333 117,18.3333333 C117,28.3333333 125.333333,36.6666667 135.333333,36.6666667 L150,36.6666667 C156,36.6666667 161,41.6666667 161,47.6666667 C161,53.6666667 156,58.6666667 150,58.6666667 L120.666667,58.6666667 C118.666667,58.6666667 117,60.3333333 117,62.3333333 C117,64.3333333 118.666667,66 120.666667,66 L150,66 C160,66 168.333333,57.6666667 168.333333,47.6666667 C168.333333,37.6666667 160,29.3333333 150,29.3333333 L135.333333,29.3333333 C129.333333,29.3333333 124.333333,24.3333333 124.333333,18.3333333 C124.333333,12.3333333 129.333333,7.33333333 135.333333,7.33333333 Z M283.333333,0 C281.333333,0 279.666667,1.66666667 279.666667,3.66666667 L279.666667,40 C279.666667,50 271.333333,58.3333333 261.333333,58.3333333 C251.333333,58.3333333 243,50 243,40 L243,3.66666667 C243,1.66666667 241.333333,0 239.333333,0 C237.333333,0 235.666667,1.66666667 235.666667,3.66666667 L235.666667,40 C235.666667,54 247.333333,65.3333333 261.333333,65.3333333 C275.333333,65.3333333 287,54 287,40 L287,3.66666667 C287,1.66666667 285.333333,0 283.333333,0 Z M342,58.3333333 L320,58.3333333 C310,58.3333333 301.666667,50 301.666667,40 L301.666667,3.66666667 C301.666667,1.66666667 300,0 298,0 C296,0 294.333333,1.66666667 294.333333,3.66666667 L294.333333,40 C294.333333,54 306,65.3333333 320,65.3333333 L342,65.3333333 C344,65.3333333 345.666667,63.6666667 345.666667,61.6666667 C345.666667,59.6666667 344,58.3333333 342,58.3333333 Z M84,0 C70,0 58.3333333,11.3333333 58.3333333,25.3333333 L58.3333333,61.6666667 C58.3333333,63.6666667 60,65.3333333 62,65.3333333 C64,65.3333333 65.6666667,63.6666667 65.6666667,61.6666667 L65.6666667,47 C65.6666667,45 67.3333333,43.3333333 69.3333333,43.3333333 L98.6666667,43.3333333 C100.666667,43.3333333 102.333333,45 102.333333,47 L102.333333,61.6666667 C102.333333,63.6666667 104,65.3333333 106,65.3333333 C108,65.3333333 109.666667,63.6666667 109.666667,61.6666667 L109.666667,25.6666667 C109.666667,11.6666667 98.3333333,0 84,0 Z M102.333333,32.6666667 C102.333333,34.6666667 100.666667,36.3333333 98.6666667,36.3333333 L69.3333333,36.3333333 C67.3333333,36.3333333 65.6666667,34.6666667 65.6666667,32.6666667 L65.6666667,25.6666667 C65.6666667,15.6666667 74,7.33333333 84,7.33333333 C94,7.33333333 102.333333,15.3333333 102.333333,25.6666667 L102.333333,32.6666667 Z M396.333333,0 C394.333333,0 392.666667,1.66666667 392.666667,3.66666667 L392.666667,40 C392.666667,50 384.333333,58.3333333 374.333333,58.3333333 C364.333333,58.3333333 356,50 356,40 L356,3.66666667 C356,1.66666667 354.333333,0 352.333333,0 C350.333333,0 348.666667,1.66666667 348.666667,3.66666667 L348.666667,40 C348.666667,54 360.333333,65.3333333 374.333333,65.3333333 C388.333333,65.3333333 400,54 400,40 L400,3.66666667 C400,1.66666667 398.333333,0 396.333333,0 Z" id="Shape"></path>
        </g>
    </g>
</svg>