<?xml version="1.0" encoding="utf-8"?>
<!-- Generator: Adobe Illustrator 19.2.1, SVG Export Plug-In . SVG Version: 6.00 Build 0)  -->
<svg version="1.1" id="Layer_1" xmlns="http://www.w3.org/2000/svg" xmlns:xlink="http://www.w3.org/1999/xlink" x="0px" y="0px"
	 viewBox="0 0 400 65.7" style="enable-background:new 0 0 400 65.7;" xml:space="preserve">
<style type="text/css">
	.st0{fill-rule:evenodd;clip-rule:evenodd;fill:#FFFFFF;}
</style>
<g>
	<g>
		<path class="st0" d="M183.1,0H183c-2.1,0-3.8,1.7-3.8,3.8v58.1c0,2.1,1.7,3.8,3.8,3.8h0.1c2.1,0,3.8-1.7,3.8-3.8V3.8
			C186.9,1.7,185.2,0,183.1,0z M197.9,34.8c-1.1-1-1.1-2.7,0-3.8l25.2-25.3c1.3-1.3,1.3-3.3,0-4.6c-1.3-1.3-3.4-1.3-4.6,0
			l-26.5,26.6c-2.9,2.9-2.9,7.5,0,10.4l26.7,26.4c1.3,1.3,3.4,1.3,4.6,0c1.3-1.3,1.3-3.3,0-4.6L197.9,34.8z M210.1,33.7
			c-0.2-0.2-0.4-0.6-0.4-0.9c0-0.3,0.1-0.7,0.4-0.9L226.9,15c0.5-0.5,0.8-1.2,0.8-1.9c0-0.7-0.3-1.4-0.8-1.9c-1-1-2.7-1-3.7,0
			L204.6,30c-0.8,0.8-1.2,1.8-1.2,2.9c0,1.1,0.4,2.1,1.2,2.9l18.7,18.5c0.5,0.5,1.2,0.8,1.9,0.8c0.7,0,1.4-0.3,1.9-0.8
			c0.5-0.5,0.8-1.2,0.8-1.9c0-0.7-0.3-1.4-0.8-1.9L210.1,33.7z M47.6,0.1H3.7C1.6,0.1,0,1.7,0,3.7c0,2,1.6,3.7,3.7,3.7h14.6
			c2,0,3.7,1.6,3.7,3.6V62c0,2,1.6,3.6,3.7,3.6c2,0,3.7-1.6,3.7-3.6V11c0-2,1.6-3.6,3.7-3.6h14.6c2,0,3.7-1.6,3.7-3.7
			C51.2,1.7,49.6,0.1,47.6,0.1z M135.4,7.4h29.3c2,0,3.7-1.6,3.7-3.7c0-2-1.6-3.6-3.7-3.6h-29.3c-10,0-18.3,8.2-18.3,18.2
			c0,10,8.2,18.2,18.3,18.2H150c6,0,11,4.9,11,10.9s-4.9,10.9-11,10.9h-29.3c-2,0-3.7,1.6-3.7,3.6c0,2,1.6,3.6,3.7,3.6H150
			c10.1,0,18.3-8.2,18.3-18.2s-8.2-18.2-18.3-18.2h-14.6c-6,0-11-4.9-11-10.9C124.4,12.3,129.3,7.4,135.4,7.4z M283.3,0.1
			c-2,0-3.7,1.6-3.7,3.6v36.4c0,10-8.2,18.2-18.3,18.2c-10.1,0-18.3-8.2-18.3-18.2V3.7c0-2-1.6-3.6-3.7-3.6c-2,0-3.7,1.6-3.7,3.6
			v36.4c0,14,11.5,25.5,25.6,25.5c14.1,0,25.6-11.5,25.6-25.5V3.7C287,1.7,285.3,0.1,283.3,0.1z M341.9,58.3h-22
			c-10,0-18.3-8.2-18.3-18.2V3.7c0-2-1.6-3.6-3.7-3.6c-2,0-3.7,1.6-3.7,3.6v36.4c0,14,11.5,25.5,25.6,25.5h22c2,0,3.7-1.6,3.7-3.6
			C345.5,60,343.9,58.3,341.9,58.3z M84.1,0.1c-14.1,0-25.6,11.5-25.6,25.5V62c0,2,1.6,3.6,3.7,3.6c2,0,3.7-1.6,3.7-3.6V47.4
			c0-2,1.6-3.6,3.7-3.6h29.3c2,0,3.7,1.6,3.7,3.6V62c0,2,1.6,3.6,3.7,3.6c2,0,3.7-1.6,3.7-3.6V25.6C109.8,11.6,98.2,0.1,84.1,0.1z
			 M102.4,32.8c0,2-1.6,3.6-3.7,3.6H69.5c-2,0-3.7-1.6-3.7-3.6v-7.3c0-10,8.2-18.2,18.3-18.2c10.1,0,18.3,8.2,18.3,18.2V32.8z
			 M396.3,0.1c-2,0-3.7,1.6-3.7,3.6v36.4c0,10-8.2,18.2-18.3,18.2c-10.1,0-18.3-8.2-18.3-18.2V3.7c0-2-1.6-3.6-3.7-3.6
			c-2,0-3.7,1.6-3.7,3.6v36.4c0,14,11.5,25.5,25.6,25.5c14.1,0,25.6-11.5,25.6-25.5V3.7C400,1.7,398.4,0.1,396.3,0.1z"/>
	</g>
</g>
</svg>
