<?xml version="1.0" encoding="utf-8"?>
<!-- Generator: Adobe Illustrator 21.0.0, SVG Export Plug-In . SVG Version: 6.00 Build 0)  -->
<svg version="1.1" id="Layer_1" xmlns="http://www.w3.org/2000/svg" xmlns:xlink="http://www.w3.org/1999/xlink" x="0px" y="0px"
	 viewBox="0 0 120 19.7" style="enable-background:new 0 0 120 19.7;" xml:space="preserve">
<style type="text/css">
	.st0{fill-rule:evenodd;clip-rule:evenodd;fill:#03A9F4;}
</style>
<g>
	<g>
		<path class="st0" d="M54.9,0L54.9,0c-0.7,0-1.2,0.5-1.2,1.1v17.4c0,0.6,0.5,1.1,1.1,1.1h0c0.6,0,1.1-0.5,1.1-1.1V1.1
			C56.1,0.5,55.6,0,54.9,0z M59.4,10.4c-0.3-0.3-0.3-0.8,0-1.1l7.6-7.6c0.4-0.4,0.4-1,0-1.4c-0.4-0.4-1-0.4-1.4,0l-8,8
			c-0.9,0.9-0.9,2.3,0,3.1l8,7.9c0.4,0.4,1,0.4,1.4,0c0.4-0.4,0.4-1,0-1.4L59.4,10.4z M63,10.1c-0.1-0.1-0.1-0.2-0.1-0.3
			c0-0.1,0-0.2,0.1-0.3l5.1-5.1c0.1-0.1,0.2-0.3,0.2-0.6c0-0.2-0.1-0.4-0.2-0.6c-0.3-0.3-0.8-0.3-1.1,0L61.4,9
			C61.1,9.2,61,9.5,61,9.9c0,0.3,0.1,0.6,0.4,0.9l5.6,5.6c0.2,0.2,0.4,0.2,0.6,0.2c0.2,0,0.4-0.1,0.6-0.2c0.1-0.1,0.2-0.3,0.2-0.6
			c0-0.2-0.1-0.4-0.2-0.6L63,10.1z M14.3,0H1.1C0.5,0,0,0.5,0,1.1c0,0.6,0.5,1.1,1.1,1.1h4.4c0.6,0,1.1,0.5,1.1,1.1v15.3
			c0,0.6,0.5,1.1,1.1,1.1c0.6,0,1.1-0.5,1.1-1.1V3.3c0-0.6,0.5-1.1,1.1-1.1h4.4c0.6,0,1.1-0.5,1.1-1.1C15.4,0.5,14.9,0,14.3,0z
			 M40.6,2.2h8.8c0.6,0,1.1-0.5,1.1-1.1C50.5,0.5,50,0,49.4,0h-8.8c-3,0-5.5,2.5-5.5,5.5c0,3,2.5,5.5,5.5,5.5H45
			c1.8,0,3.3,1.5,3.3,3.3c0,1.8-1.5,3.3-3.3,3.3h-8.8c-0.6,0-1.1,0.5-1.1,1.1s0.5,1.1,1.1,1.1H45c3,0,5.5-2.5,5.5-5.5
			c0-3-2.5-5.5-5.5-5.5h-4.4c-1.8,0-3.3-1.5-3.3-3.3C37.3,3.7,38.8,2.2,40.6,2.2z M85,0c-0.6,0-1.1,0.5-1.1,1.1V12
			c0,3-2.5,5.5-5.5,5.5c-3,0-5.5-2.5-5.5-5.5V1.1c0-0.6-0.5-1.1-1.1-1.1c-0.6,0-1.1,0.5-1.1,1.1V12c0,4.2,3.5,7.6,7.7,7.6
			c4.2,0,7.7-3.4,7.7-7.6V1.1C86.1,0.5,85.6,0,85,0z M102.6,17.5H96c-3,0-5.5-2.5-5.5-5.5V1.1C90.5,0.5,90,0,89.4,0
			s-1.1,0.5-1.1,1.1V12c0,4.2,3.5,7.6,7.7,7.6h6.6c0.6,0,1.1-0.5,1.1-1.1S103.2,17.5,102.6,17.5z M25.2,0c-4.2,0-7.7,3.4-7.7,7.6
			v10.9c0,0.6,0.5,1.1,1.1,1.1s1.1-0.5,1.1-1.1v-4.4c0-0.6,0.5-1.1,1.1-1.1h8.8c0.6,0,1.1,0.5,1.1,1.1v4.4c0,0.6,0.5,1.1,1.1,1.1
			c0.6,0,1.1-0.5,1.1-1.1V7.7C32.9,3.5,29.5,0,25.2,0z M30.7,9.8c0,0.6-0.5,1.1-1.1,1.1h-8.8c-0.6,0-1.1-0.5-1.1-1.1V7.7
			c0-3,2.5-5.5,5.5-5.5c3,0,5.5,2.4,5.5,5.5V9.8z M118.9,0c-0.6,0-1.1,0.5-1.1,1.1V12c0,3-2.5,5.5-5.5,5.5c-3,0-5.5-2.5-5.5-5.5V1.1
			c0-0.6-0.5-1.1-1.1-1.1c-0.6,0-1.1,0.5-1.1,1.1V12c0,4.2,3.5,7.6,7.7,7.6c4.2,0,7.7-3.4,7.7-7.6V1.1C120,0.5,119.5,0,118.9,0z"/>
	</g>
</g>
</svg>
