<?xml version="1.0" encoding="UTF-8" standalone="no"?>
<svg width="1269px" height="182px" viewBox="0 0 1269 182" version="1.1" xmlns="http://www.w3.org/2000/svg" xmlns:xlink="http://www.w3.org/1999/xlink">
    <!-- Generator: Sketch 39.1 (31720) - http://www.bohemiancoding.com/sketch -->
    <title>Page 1</title>
    <desc>Created with Sketch.</desc>
    <defs>
        <polygon id="path-1" points="184.585264 0.432575504 0.167589734 0.432575504 0.167589734 180.831923 184.585264 180.831923 184.585264 0.432575504"></polygon>
        <polygon id="path-3" points="184.493779 0.432575504 0.0804157309 0.432575504 0.0804157309 180.831923 184.493779 180.831923 184.493779 0.432575504"></polygon>
        <polygon id="path-5" points="184.015501 0.432575504 0 0.432575504 0 181.257418 184.015501 181.257418 184.015501 0.432575504"></polygon>
        <linearGradient x1="50%" y1="-34.4922962%" x2="50%" y2="100%" id="linearGradient-7">
            <stop stop-color="#009FCE" offset="0%"></stop>
            <stop stop-color="#0065A0" offset="100%"></stop>
        </linearGradient>
    </defs>
    <g id="Page-1" stroke="none" stroke-width="1" fill="none" fill-rule="evenodd">
        <g id="Artboard-7-Copy-9" transform="translate(-771.000000, -726.000000)">
            <g id="Page-1" transform="translate(771.282649, 726.000000)">
                <g id="Group-7" transform="translate(1083.793068, 0.182336)">
                    <mask id="mask-2" fill="white">
                        <use xlink:href="#path-1"></use>
                    </mask>
                    <g id="Clip-6"></g>
                </g>
                <g id="Group-10" transform="translate(227.844805, 0.182336)">
                    <mask id="mask-4" fill="white">
                        <use xlink:href="#path-3"></use>
                    </mask>
                    <g id="Clip-9"></g>
                </g>
                <g id="Group-13" transform="translate(0.637539, 0.182336)">
                    <mask id="mask-6" fill="white">
                        <use xlink:href="#path-5"></use>
                    </mask>
                    <g id="Clip-12"></g>
                </g>
                <path d="M850.903755,154.138541 C850.903755,169.08317 838.786837,181.195777 823.842208,181.195777 C808.901889,181.195777 796.784971,169.08317 796.784971,154.138541 C796.784971,139.193911 808.901889,127.076994 823.842208,127.076994 C838.786837,127.076994 850.903755,139.193911 850.903755,154.138541" id="Fill-14" fill="#F05A22"></path>
                <polygon id="Fill-16" fill="url(#linearGradient-7)" points="823.843932 0.795522659 724.624008 181.200088 769.272542 181.200088 823.843932 81.9758526 878.415321 181.200088 923.063856 181.200088"></polygon>
                <path d="M284.10013,136.717939 L356.163676,136.717939 L364.965791,159.270665 C368.077998,167.883117 370.651388,172.96955 374.112749,176.241247 C378.311211,180.202629 382.660542,181.051805 389.014273,181.01301 C391.540247,180.995768 394.665386,181.000079 398.39831,181.000079 L405.402932,181.01301 C409.230688,181.01301 412.338585,177.905114 412.338585,174.073047 C412.338585,173.223871 412.183406,172.404869 411.903221,171.654836 L351.322944,18.1825018 C349.353029,12.9020949 346.029605,8.50103733 341.740621,5.42331442 L341.732,5.41038281 L341.740621,5.39314067 C337.490433,2.34559151 332.339342,0.612755921 326.653744,0.612755921 L320.127592,0.612755921 L320.127592,0.612755921 L313.610062,0.612755921 C307.920154,0.612755921 302.769063,2.34559151 298.518874,5.39314067 C294.242822,8.45793197 290.919399,12.8719211 288.936552,18.1825018 L228.360585,171.654836 C228.0804,172.404869 227.925221,173.223871 227.925221,174.073047 C227.925221,177.905114 231.028807,181.01301 234.860874,181.01301 L241.861185,181.000079 C245.59842,181.000079 248.719248,180.995768 251.249533,181.01301 C257.594642,181.051805 261.948284,180.202629 266.142436,176.241247 C269.599486,172.96955 272.181497,167.883117 275.298015,159.270665 L284.10013,136.717939 Z M344.30108,106.345901 L295.958415,106.345901 L320.127592,44.4250468 L344.30108,106.345901 Z" id="Fill-8" fill="url(#linearGradient-7)"></path>
                <path d="M184.653041,139.976705 C184.653041,140.231026 184.640109,140.476727 184.614246,140.713806 L184.622867,173.870452 L184.653041,174.473927 C184.653041,178.318925 181.536523,181.439753 177.691524,181.439753 L174.333617,181.439753 L174.329306,181.439753 L167.807465,181.439753 L167.613491,181.439753 L167.419516,181.439753 L167.221232,181.439753 L164.022814,181.439753 C161.884788,181.439753 159.820041,181.081979 157.8803,180.422467 L157.875989,180.422467 L157.755294,180.383672 L157.634599,180.340567 L157.630288,180.340567 C156.664728,180.012966 155.789689,179.620707 154.996551,179.193964 L154.837061,179.107753 L154.837061,179.107753 L154.677571,179.021543 C152.720588,177.948219 150.948957,176.573158 149.418717,174.952396 L148.849726,174.331679 L42.1036053,57.3782083 L42.1036053,139.976705 C42.1036053,140.231026 42.0949843,140.476727 42.069121,140.713806 L42.0777421,173.870452 L42.1036053,174.473927 C42.1036053,178.318925 38.9870876,181.439753 35.1463998,181.439753 L21.4776892,181.439753 C15.7662286,181.439753 10.6022061,178.892226 6.86928168,174.952396 C3.13635725,171.021187 0.800046578,165.628706 0.800046578,160.007767 L0.800046578,141.489703 C0.692283171,141.002612 0.636246199,140.49828 0.636246199,139.976705 L0.636246199,127.07527 L0.636246199,118.031765 L0.636246199,64.0250553 L0.636246199,43.3905181 L0.636246199,42.080115 C0.636246199,41.5542296 0.692283171,41.0542074 0.800046578,40.5628063 L0.800046578,22.0447424 C0.800046578,16.4281136 3.13635725,11.0356327 6.86928168,7.10011304 C10.6022061,3.16028287 15.7662286,0.612755921 21.4776892,0.612755921 L26.9089649,0.612755921 L26.9693124,0.612755921 L27.7624511,0.612755921 L35.1463998,0.612755921 C37.1033832,0.612755921 38.8793242,1.42744728 40.1423113,2.73353978 L40.1854167,2.77664514 L40.4483594,3.07407214 L143.185681,115.941154 L143.185681,64.0250553 L143.185681,43.3905181 L143.185681,42.080115 C143.185681,41.5542296 143.241718,41.0542074 143.349482,40.5628063 L143.349482,22.0447424 C143.349482,16.4281136 145.685792,11.0356327 149.418717,7.10011304 C153.147331,3.16028287 158.311353,0.612755921 164.022814,0.612755921 L177.691524,0.612755921 C181.536523,0.612755921 184.653041,3.7335842 184.653041,7.57858257 L184.622867,8.18636819 L184.614246,41.3387028 C184.640109,41.5800928 184.653041,41.8257934 184.653041,42.080115 L184.653041,139.976705 Z" id="Fill-11" fill="url(#linearGradient-7)"></path>
                <path d="M954.586808,22.7749472 L999.425007,137.624876 L1044.25889,22.7749472 C1047.3711,14.1624957 1049.94449,9.08037341 1053.40585,5.80867637 C1057.60432,1.84729351 1061.95365,0.998117865 1068.30307,1.04122323 C1070.83335,1.05415484 1073.95849,1.0498443 1077.69141,1.04553376 L1084.69604,1.04122323 C1088.52379,1.04122323 1091.63169,4.14480936 1091.63169,7.97687612 C1091.63169,8.82605177 1091.47651,9.64505367 1091.19632,10.395087 L1030.61174,163.863111 C1028.64182,169.147828 1025.3184,173.548886 1021.03373,176.630919 L1021.02079,176.63954 L1021.03373,176.661093 C1016.78354,179.704331 1011.62813,181.437167 1005.94254,181.437167 L999.425007,181.437167 L999.416386,181.437167 L992.898855,181.437167 C987.208947,181.437167 982.062167,179.704331 977.811978,176.661093 C973.531615,173.591991 970.208192,169.178002 968.229656,163.863111 L907.649379,10.395087 C907.369194,9.64505367 907.214014,8.82605177 907.214014,7.97687612 C907.214014,4.14480936 910.3176,1.04122323 914.149667,1.04122323 L921.149978,1.04553376 C924.887213,1.0498443 928.008041,1.05415484 930.538326,1.04122323 C936.883436,0.998117865 941.237077,1.84729351 945.431229,5.80867637 C948.89259,9.07606288 951.47029,14.1624957 954.586808,22.7749472" id="Fill-1" fill="url(#linearGradient-7)"></path>
                <path d="M571.461601,181.603985 C570.043435,181.457427 568.668373,181.177242 567.405386,180.741878 C566.698458,180.496177 566.034636,180.224613 565.409608,179.927186 L565.34495,179.897012 L564.676817,179.55217 L564.612159,179.521996 L564.581985,179.500443 L564.556122,179.487511 L564.500085,179.457338 L564.439737,179.422853 L564.37939,179.388369 L564.349216,179.375438 L564.319042,179.358195 L564.263005,179.328022 L564.206968,179.293537 L564.146621,179.259053 L564.034547,179.190084 L563.97851,179.1556 L563.918162,179.121116 L563.892299,179.108184 L563.862126,179.090942 L563.806089,179.052147 L563.750052,179.017663 L563.694015,178.987489 L563.668151,178.970247 L563.637978,178.948694 L563.581941,178.91421 L563.525904,178.879726 L563.474177,178.840931 L563.452625,178.827999 L563.41814,178.806447 C559.95678,176.547726 557.745475,173.306202 555.172084,169.689662 L496.953981,80.2977609 L496.953981,80.3796611 L496.953981,80.7934725 L496.953981,81.2460789 L496.953981,81.7245484 L496.953981,82.2331917 L496.953981,82.7806298 L496.953981,83.3582416 L496.953981,83.9789589 L496.953981,84.6341604 L496.953981,85.3281567 L496.953981,86.0652584 L496.953981,86.841155 L496.953981,87.6601569 L496.953981,91.6646451 L496.953981,92.9793586 L496.953981,93.0009113 L496.953981,93.0267745 L496.953981,93.0526378 L496.953981,93.0741904 L496.953981,93.0957431 L496.953981,160.413388 C496.953981,166.025707 494.621981,171.418188 490.893367,175.353707 C487.160443,179.293537 481.99211,181.836754 476.28496,181.836754 L462.611939,181.836754 C458.771251,181.836754 455.654733,178.720236 455.654733,174.875238 L455.680596,174.267452 L455.693528,141.115117 C455.667665,140.878038 455.654733,140.628027 455.654733,140.378016 L455.654733,70.5688805 C455.654733,70.3145588 455.667665,70.0688582 455.693528,69.8317788 L455.684907,47.4342322 C455.641801,45.9039918 455.615938,44.2832301 455.615938,42.546084 C455.615938,42.2917624 455.62887,42.0460618 455.654733,41.8089823 L455.646112,18.1053432 C455.784049,7.59625577 458.085875,1.90634786 468.715658,1.02268792 L476.121159,1.01406685 C481.828309,1.01406685 486.996642,3.55728326 490.729567,7.50142397 L491.199415,8.01437779 L491.199415,8.01437779 C492.664998,9.66531319 493.897811,11.5533281 494.828887,13.5879012 L573.763427,134.683797 L652.693657,13.5965223 C653.624733,11.5576386 654.861857,9.66962372 656.33175,8.01437779 L656.33175,8.01006725 L656.805909,7.49711343 C660.534523,3.55728326 665.698545,1.01406685 671.410006,1.01406685 L678.806886,1.02268792 C689.522879,1.9106584 691.876432,7.76005615 691.876432,18.368286 L691.876432,36.0716585 L691.876432,36.7958286 L691.876432,41.8089823 C691.902296,42.0460618 691.915227,42.2917624 691.915227,42.546084 C691.915227,44.3047828 691.889364,45.9470972 691.846259,47.4988902 L691.837637,69.8274682 C691.85919,70.0688582 691.876432,70.3145588 691.876432,70.5645699 L691.876432,140.373705 C691.876432,140.628027 691.85919,140.873727 691.837637,141.110807 L691.850569,174.267452 L691.876432,174.875238 C691.876432,178.715925 688.755604,181.836754 684.914916,181.836754 L671.246206,181.836754 C665.534745,181.836754 660.370723,179.289227 656.637798,175.349397 C652.909184,171.418188 650.572874,166.025707 650.572874,160.409078 L650.572874,93.0957431 L650.572874,93.0741904 L650.572874,93.0483272 L650.572874,93.022464 L650.572874,93.0009113 L650.572874,92.9750481 L650.572874,91.6603345 L650.572874,87.6601569 L650.572874,80.2977609 L592.359081,169.685352 C589.992597,173.013086 587.93216,176.02184 584.923406,178.241766 C584.660463,178.435741 584.388899,178.629715 584.113025,178.810757 L584.065609,178.836621 L584.056988,178.845242 L584.000951,178.879726 L584.000951,178.879726 L583.944914,178.918521 L583.931982,178.922831 L583.888877,178.953005 L583.863014,178.970247 L583.83284,178.987489 L583.794045,179.009042 L583.776803,179.021974 L583.725077,179.052147 L583.720766,179.056458 L583.664729,179.090942 L583.651798,179.099563 L583.608692,179.125426 L583.582829,179.138358 L583.552655,179.1556 L583.51386,179.181463 L583.496618,179.194395 L583.440581,179.224569 L583.440581,179.224569 L583.380234,179.259053 L583.371613,179.263364 L583.324197,179.293537 L583.298334,179.306469 L583.26816,179.328022 L583.229365,179.345264 L583.207812,179.362506 L583.151775,179.388369 L583.147465,179.39699 L583.091428,179.427164 L583.082807,179.427164 L583.03108,179.457338 L583.009528,179.470269 L582.975043,179.487511 L582.936249,179.509064 L582.914696,179.521996 L582.862969,179.55217 L582.854348,179.55648 L582.733653,179.621138 L582.712101,179.629759 L582.673306,179.651312 L582.638822,179.668554 L582.612958,179.681486 L582.565542,179.703038 L582.552611,179.711659 L582.492263,179.741833 L582.487953,179.741833 L582.431916,179.776317 L582.410363,179.784938 L582.367258,179.806491 L582.337084,179.819423 L582.30691,179.836665 L582.255184,179.862528 L582.246563,179.866839 L582.186215,179.897012 L582.181905,179.897012 L582.121557,179.927186 L582.104315,179.935807 L582.056899,179.95736 L582.026725,179.965981 L581.992241,179.987534 L581.949136,180.009086 L581.931894,180.017707 L581.867236,180.043571 L581.802578,180.073744 L581.789646,180.078055 L581.74223,180.099608 L581.707746,180.112539 L581.673261,180.129781 L581.630156,180.151334 L581.612914,180.159955 L581.548256,180.185818 L581.543945,180.190129 L581.479287,180.215992 L581.470666,180.220303 L581.414629,180.241855 L581.388766,180.254787 L581.349971,180.272029 L581.306866,180.289271 L581.285313,180.297892 L581.224966,180.323756 L581.216345,180.323756 L581.151687,180.353929 L581.143065,180.35824 L581.082718,180.379792 L581.061165,180.392724 L581.01806,180.409966 L580.979265,180.422898 L580.949091,180.435829 L580.893054,180.457382 L580.884433,180.461693 L580.815465,180.487556 L580.811154,180.491866 L580.746496,180.513419 L580.724943,180.52204 L580.681838,180.539282 L580.638733,180.552214 L580.608559,180.565146 L580.552522,180.586698 L580.53959,180.591009 L580.470622,180.616872 L580.470622,180.616872 L580.401653,180.642735 L580.380101,180.647046 L580.332685,180.664288 L580.29389,180.677219 L580.263716,180.690151 L580.207679,180.707393 L580.190437,180.716014 L580.121468,180.737567 L579.940426,180.797915 L579.936115,180.797915 L579.759383,180.858262 L579.755073,180.858262 L579.578341,180.909988 L579.565409,180.91861 L579.392988,180.966025 L579.380056,180.974647 L579.207635,181.022062 L579.190393,181.022062 L579.022282,181.073789 L578.996418,181.078099 L578.832618,181.121205 L578.806755,181.125515 L578.642954,181.16431 L578.612781,181.172931 L578.44898,181.211726 L578.418807,181.220347 L578.259317,181.254831 L578.224832,181.263452 L578.065343,181.297937 L578.026548,181.306558 L577.871368,181.336732 L577.828263,181.341042 L577.673084,181.371216 L577.629978,181.379837 L577.474799,181.410011 L577.427383,181.418632 L577.280825,181.440184 L577.229099,181.448805 L577.07823,181.474669 L577.026503,181.48329 L576.875635,181.504842 L576.823908,181.513464 L576.67735,181.530706 L576.621313,181.539327 L576.474755,181.556569 L576.418718,181.56519 L576.272159,181.582432 L576.216123,181.591053 L576.069564,181.603985 L576.009217,181.612606 L575.862659,181.625537 L575.802311,181.629848 L575.660063,181.64278 L575.599716,181.651401 L575.453158,181.660022 L575.39281,181.664332 L575.250562,181.672953 L575.181594,181.681574 L575.043657,181.690196 L574.978999,181.690196 L574.836751,181.698817 L574.772093,181.703127 L574.629845,181.707438 L574.560877,181.711748 L574.422939,181.716059 L574.353971,181.716059 L574.216034,181.720369 L574.147065,181.720369 L574.009128,181.72468 L573.940159,181.72468 L573.797912,181.72468 L573.728943,181.72468 L573.591006,181.72468 L573.522037,181.720369 L573.3841,181.720369 L573.315132,181.716059 L572.965978,181.711748 L572.90132,181.707438 L572.763383,181.703127 L572.345261,181.681574 L572.280603,181.672953 L571.521948,181.612606 L571.461601,181.603985 Z" id="Fill-3" fill="url(#linearGradient-7)"></path>
                <path d="M1140.13988,136.717939 L1212.19911,136.717939 L1221.00554,159.270665 C1224.11775,167.883117 1226.69114,172.96955 1230.15681,176.241247 C1234.35096,180.202629 1238.70029,181.051805 1245.05402,181.01301 C1247.57999,180.995768 1250.70513,181.000079 1254.43806,181.000079 L1261.44268,181.01301 C1265.27044,181.01301 1268.37833,177.905114 1268.37833,174.073047 C1268.37833,173.223871 1268.22315,172.404869 1267.94297,171.654836 L1207.36269,18.1825018 C1205.39278,12.9020949 1202.06504,8.50103733 1197.78037,5.42331442 L1197.76744,5.41038281 L1197.78037,5.39314067 C1193.53018,2.34559151 1188.37478,0.612755921 1182.69349,0.612755921 L1176.16734,0.612755921 L1176.16734,0.612755921 L1169.6455,0.612755921 C1163.9599,0.612755921 1158.80881,2.34559151 1154.55431,5.39314067 C1150.27395,8.45793197 1146.95484,12.8719211 1144.97199,18.1825018 L1084.40033,171.654836 C1084.12015,172.404869 1083.96066,173.223871 1083.96066,174.073047 C1083.96066,177.905114 1087.07287,181.01301 1090.90062,181.01301 L1097.90524,181.000079 C1101.63817,181.000079 1104.759,180.995768 1107.28928,181.01301 C1113.6387,181.051805 1117.98803,180.202629 1122.18218,176.241247 C1125.64354,172.96955 1128.22124,167.883117 1131.33776,159.270665 L1140.13988,136.717939 Z M1200.34514,106.345901 L1151.99816,106.345901 L1176.16734,44.4250468 L1200.34514,106.345901 Z" id="Fill-5" fill="url(#linearGradient-7)"></path>
            </g>
        </g>
    </g>
</svg>